<svg width="490" height="524" viewBox="0 0 490 524" fill="none" xmlns="http://www.w3.org/2000/svg">
<g clip-path="url(#clip0_616_218)">
<path d="M480.502 0H7.26355C3.25197 0 0 3.25203 0 7.26361V482.543C0 486.555 3.25197 489.807 7.26355 489.807H480.502C484.513 489.807 487.765 486.555 487.765 482.543V7.26361C487.765 3.25203 484.513 0 480.502 0Z" fill="url(#paint0_linear_616_218)"/>
<path d="M50.1318 27.54C54.316 27.54 57.7079 24.148 57.7079 19.9638C57.7079 15.7796 54.316 12.3877 50.1318 12.3877C45.9476 12.3877 42.5557 15.7796 42.5557 19.9638C42.5557 24.148 45.9476 27.54 50.1318 27.54Z" fill="#0055FF"/>
<path d="M23.6152 27.54C27.7994 27.54 31.1913 24.148 31.1913 19.9638C31.1913 15.7796 27.7994 12.3877 23.6152 12.3877C19.431 12.3877 16.0391 15.7796 16.0391 19.9638C16.0391 24.148 19.431 27.54 23.6152 27.54Z" fill="#0055FF"/>
<path d="M76.6484 27.54C80.8326 27.54 84.2245 24.148 84.2245 19.9638C84.2245 15.7796 80.8326 12.3877 76.6484 12.3877C72.4642 12.3877 69.0723 15.7796 69.0723 19.9638C69.0723 24.148 72.4642 27.54 76.6484 27.54Z" fill="#0055FF"/>
<path opacity="0.4" d="M475.216 35.2832H46.7014C43.0267 35.2832 40.0479 38.2621 40.0479 41.9367V477.295C40.0479 480.97 43.0267 483.949 46.7014 483.949H475.216C478.891 483.949 481.87 480.97 481.87 477.295V41.9367C481.87 38.2621 478.891 35.2832 475.216 35.2832Z" fill="white"/>
<path d="M19.0157 66.1709C19.2126 66.1709 19.3744 66.2332 19.5011 66.3598C19.6277 66.4863 19.6897 66.648 19.6897 66.845V70.8869C19.6897 71.0839 19.6277 71.2457 19.5011 71.3722C19.3745 71.4988 19.2127 71.5608 19.0157 71.5608C18.8188 71.5608 18.657 71.4985 18.5305 71.3722C18.4039 71.2456 18.3416 71.0839 18.3416 70.8869V66.845C18.3416 66.648 18.4035 66.4862 18.5305 66.3598C18.6567 66.2332 18.819 66.1709 19.0157 66.1709ZM19.0157 79.6425C19.2126 79.6425 19.3744 79.7048 19.5011 79.8314C19.6277 79.9579 19.6897 80.1196 19.6897 80.3166V84.3585C19.6897 84.5556 19.6277 84.7173 19.5011 84.8438C19.3745 84.9704 19.2127 85.0327 19.0157 85.0327C18.8188 85.0327 18.657 84.9704 18.5305 84.8438C18.4039 84.7172 18.3416 84.5555 18.3416 84.3585V80.3166C18.3416 80.1196 18.4035 79.9579 18.5305 79.8314C18.6567 79.7048 18.819 79.6425 19.0157 79.6425ZM28.4454 75.6006C28.4454 75.7976 28.3834 75.9594 28.2568 76.0859C28.1302 76.2125 27.9684 76.2745 27.7715 76.2745H23.7296C23.5327 76.2745 23.371 76.2122 23.2444 76.0859C23.1178 75.9593 23.0554 75.7976 23.0554 75.6006C23.0554 75.4036 23.1178 75.2418 23.2444 75.1153C23.3706 74.9888 23.5328 74.9265 23.7296 74.9265H27.7715C27.9684 74.9265 28.1302 74.9888 28.2568 75.1153C28.3834 75.2419 28.4454 75.4036 28.4454 75.6006ZM14.9739 75.6006C14.9739 75.7976 14.9112 75.9594 14.785 76.0859C14.6588 76.2125 14.4966 76.2745 14.2997 76.2745H10.2579C10.061 76.2745 9.89922 76.2122 9.77257 76.0859C9.64595 75.9593 9.58398 75.7976 9.58398 75.6006C9.58398 75.4036 9.64595 75.2418 9.77257 75.1153C9.89918 74.9888 10.061 74.9265 10.2579 74.9265H14.2997C14.4967 74.9265 14.6584 74.9888 14.785 75.1153C14.9116 75.2419 14.9739 75.4036 14.9739 75.6006ZM12.3422 68.9291C12.4831 68.8025 12.645 68.7402 12.8275 68.7402C13.0101 68.7402 13.1635 68.8025 13.2899 68.9291L16.1518 71.791C16.2784 71.9319 16.3404 72.0896 16.3404 72.2638C16.3404 72.438 16.2738 72.5936 16.1412 72.7263C16.0085 72.8591 15.8529 72.9276 15.6788 72.9253C15.5026 72.9253 15.345 72.861 15.206 72.7367L12.344 69.8748C12.2174 69.7483 12.1554 69.5949 12.1554 69.4124C12.1554 69.2297 12.2155 69.0701 12.3422 68.9291ZM21.8776 78.4646C22.0186 78.3236 22.1763 78.2529 22.3505 78.2529C22.5247 78.2529 22.6842 78.3234 22.8233 78.4646L25.6852 81.3264C25.8118 81.453 25.8737 81.6064 25.8737 81.7889C25.8737 81.9713 25.8073 82.129 25.675 82.2617C25.5423 82.3945 25.3847 82.4607 25.2022 82.4607C25.0197 82.4607 24.8662 82.3984 24.7397 82.2722L21.8778 79.4103C21.7369 79.2693 21.6666 79.1117 21.6666 78.9375C21.6666 78.7633 21.737 78.6035 21.8776 78.4646ZM25.6872 68.9291C25.8138 69.0701 25.8762 69.2319 25.8762 69.4144C25.8762 69.597 25.8135 69.7503 25.6872 69.8769L22.8254 72.7387C22.684 72.8653 22.5269 72.9273 22.3526 72.9273C22.1783 72.9273 22.023 72.861 21.8901 72.7283C21.7551 72.5955 21.689 72.44 21.6909 72.2658C21.6909 72.0897 21.7551 71.9319 21.8798 71.793L24.7415 68.9311C24.8682 68.8045 25.0217 68.7425 25.2042 68.7425C25.3867 68.7425 25.5463 68.8028 25.6872 68.9291ZM16.1518 78.4646C16.2928 78.6055 16.3631 78.7632 16.3631 78.9374C16.3631 79.1116 16.2924 79.2713 16.1518 79.4102L13.2899 82.2721C13.1633 82.3987 13.0099 82.4607 12.8275 82.4607C12.645 82.4607 12.4874 82.3941 12.3547 82.2617C12.2221 82.1289 12.1555 81.9713 12.1555 81.7889C12.1555 81.6062 12.2175 81.4529 12.3441 81.3264L15.206 78.4645C15.347 78.3236 15.5046 78.2528 15.6788 78.2528C15.853 78.2528 16.0127 78.3234 16.1518 78.4646Z" fill="black" stroke="#080444" stroke-width="10.2803" stroke-miterlimit="10" stroke-linecap="round"/>
<path opacity="0.5" d="M214.033 53.2803H70.5383C66.1776 53.2803 62.6426 56.8153 62.6426 61.176V90.0274C62.6426 94.3881 66.1776 97.9231 70.5383 97.9231H214.033C218.393 97.9231 221.928 94.3881 221.928 90.0274V61.176C221.928 56.8153 218.393 53.2803 214.033 53.2803Z" fill="white"/>
<path d="M71.7537 120.704C71.9686 120.33 72.2869 120.019 72.7087 119.772C73.1385 119.518 73.6359 119.39 74.201 119.39C74.782 119.39 75.3073 119.53 75.7769 119.808C76.2544 120.087 76.6284 120.481 76.899 120.99C77.1696 121.492 77.3049 122.077 77.3049 122.745C77.3049 123.406 77.1696 123.995 76.899 124.512C76.6284 125.029 76.2544 125.431 75.7769 125.718C75.3073 126.004 74.782 126.147 74.201 126.147C73.6439 126.147 73.1504 126.024 72.7207 125.777C72.2988 125.523 71.9765 125.208 71.7537 124.834V129.144H70.6673V119.498H71.7537V120.704ZM76.1947 122.745C76.1947 122.252 76.0952 121.822 75.8962 121.456C75.6973 121.09 75.4267 120.811 75.0844 120.62C74.7502 120.429 74.3801 120.334 73.9742 120.334C73.5762 120.334 73.2062 120.433 72.8639 120.632C72.5297 120.823 72.2591 121.106 72.0521 121.48C71.8532 121.846 71.7537 122.272 71.7537 122.757C71.7537 123.25 71.8532 123.684 72.0521 124.058C72.2591 124.424 72.5297 124.707 72.8639 124.906C73.2062 125.097 73.5762 125.192 73.9742 125.192C74.3801 125.192 74.7502 125.097 75.0844 124.906C75.4267 124.707 75.6973 124.424 75.8962 124.058C76.0952 123.684 76.1947 123.246 76.1947 122.745ZM79.8213 120.56C80.0123 120.186 80.2829 119.896 80.6331 119.689C80.9913 119.482 81.425 119.379 81.9344 119.379V120.501H81.6479C80.4302 120.501 79.8213 121.161 79.8213 122.482V126.04H78.7349V119.498H79.8213V120.56ZM82.7825 122.745C82.7825 122.077 82.9178 121.492 83.1884 120.99C83.459 120.481 83.8291 120.087 84.2987 119.808C84.7762 119.53 85.3055 119.39 85.8865 119.39C86.4595 119.39 86.9569 119.514 87.3788 119.761C87.8006 120.007 88.115 120.318 88.3219 120.692V119.498H89.4202V126.04H88.3219V124.822C88.107 125.204 87.7847 125.523 87.3549 125.777C86.9331 126.024 86.4396 126.147 85.8745 126.147C85.2936 126.147 84.7683 126.004 84.2987 125.718C83.8291 125.431 83.459 125.029 83.1884 124.512C82.9178 123.995 82.7825 123.406 82.7825 122.745ZM88.3219 122.757C88.3219 122.264 88.2224 121.834 88.0234 121.468C87.8245 121.102 87.5539 120.823 87.2116 120.632C86.8774 120.433 86.5073 120.334 86.1014 120.334C85.6955 120.334 85.3254 120.429 84.9911 120.62C84.6568 120.811 84.3902 121.09 84.1913 121.456C83.9923 121.822 83.8928 122.252 83.8928 122.745C83.8928 123.246 83.9923 123.684 84.1913 124.058C84.3902 124.424 84.6568 124.707 84.9911 124.906C85.3254 125.097 85.6955 125.192 86.1014 125.192C86.5073 125.192 86.8774 125.097 87.2116 124.906C87.5539 124.707 87.8245 124.424 88.0234 124.058C88.2224 123.684 88.3219 123.25 88.3219 122.757ZM93.9541 119.39C94.5192 119.39 95.0126 119.514 95.4345 119.761C95.8642 120.007 96.1826 120.318 96.3895 120.692V119.498H97.4878V126.183C97.4878 126.78 97.3605 127.309 97.1058 127.771C96.8511 128.241 96.485 128.607 96.0075 128.869C95.5379 129.132 94.9888 129.263 94.36 129.263C93.5005 129.263 92.7842 129.06 92.2111 128.655C91.6381 128.249 91.2999 127.695 91.1964 126.995H92.2708C92.3902 127.393 92.6369 127.711 93.011 127.95C93.3851 128.197 93.8347 128.32 94.36 128.32C94.9569 128.32 95.4424 128.133 95.8165 127.759C96.1985 127.385 96.3895 126.86 96.3895 126.183V124.81C96.1746 125.192 95.8563 125.511 95.4345 125.765C95.0126 126.02 94.5192 126.147 93.9541 126.147C93.3731 126.147 92.8439 126.004 92.3663 125.718C91.8968 125.431 91.5267 125.029 91.2561 124.512C90.9855 123.995 90.8502 123.406 90.8502 122.745C90.8502 122.077 90.9855 121.492 91.2561 120.99C91.5267 120.481 91.8968 120.087 92.3663 119.808C92.8439 119.53 93.3731 119.39 93.9541 119.39ZM96.3895 122.757C96.3895 122.264 96.29 121.834 96.0911 121.468C95.8921 121.102 95.6215 120.823 95.2793 120.632C94.945 120.433 94.5749 120.334 94.169 120.334C93.7631 120.334 93.393 120.429 93.0588 120.62C92.7245 120.811 92.4579 121.09 92.2589 121.456C92.0599 121.822 91.9604 122.252 91.9604 122.745C91.9604 123.246 92.0599 123.684 92.2589 124.058C92.4579 124.424 92.7245 124.707 93.0588 124.906C93.393 125.097 93.7631 125.192 94.169 125.192C94.5749 125.192 94.945 125.097 95.2793 124.906C95.6215 124.707 95.8921 124.424 96.0911 124.058C96.29 123.684 96.3895 123.25 96.3895 122.757ZM107.191 119.379C107.7 119.379 108.154 119.486 108.552 119.701C108.95 119.908 109.264 120.222 109.495 120.644C109.726 121.066 109.841 121.579 109.841 122.184V126.04H108.767V122.339C108.767 121.687 108.604 121.189 108.277 120.847C107.959 120.497 107.525 120.322 106.976 120.322C106.411 120.322 105.961 120.505 105.627 120.871C105.293 121.229 105.126 121.75 105.126 122.435V126.04H104.051V122.339C104.051 121.687 103.888 121.189 103.562 120.847C103.243 120.497 102.81 120.322 102.261 120.322C101.695 120.322 101.246 120.505 100.912 120.871C100.577 121.229 100.41 121.75 100.41 122.435V126.04H99.3237V119.498H100.41V120.441C100.625 120.099 100.912 119.836 101.27 119.653C101.636 119.47 102.038 119.379 102.475 119.379C103.025 119.379 103.51 119.502 103.932 119.749C104.354 119.995 104.668 120.357 104.875 120.835C105.058 120.373 105.36 120.015 105.782 119.761C106.204 119.506 106.674 119.379 107.191 119.379ZM111.217 122.745C111.217 122.077 111.353 121.492 111.623 120.99C111.894 120.481 112.264 120.087 112.734 119.808C113.211 119.53 113.74 119.39 114.321 119.39C114.894 119.39 115.392 119.514 115.814 119.761C116.235 120.007 116.55 120.318 116.757 120.692V119.498H117.855V126.04H116.757V124.822C116.542 125.204 116.22 125.523 115.79 125.777C115.368 126.024 114.875 126.147 114.309 126.147C113.728 126.147 113.203 126.004 112.734 125.718C112.264 125.431 111.894 125.029 111.623 124.512C111.353 123.995 111.217 123.406 111.217 122.745ZM116.757 122.757C116.757 122.264 116.657 121.834 116.458 121.468C116.259 121.102 115.989 120.823 115.647 120.632C115.312 120.433 114.942 120.334 114.536 120.334C114.13 120.334 113.76 120.429 113.426 120.62C113.092 120.811 112.825 121.09 112.626 121.456C112.427 121.822 112.328 122.252 112.328 122.745C112.328 123.246 112.427 123.684 112.626 124.058C112.825 124.424 113.092 124.707 113.426 124.906C113.76 125.097 114.13 125.192 114.536 125.192C114.942 125.192 115.312 125.097 115.647 124.906C115.989 124.707 116.259 124.424 116.458 124.058C116.657 123.684 116.757 123.25 116.757 122.757ZM125.19 126.147C124.688 126.147 124.239 126.064 123.841 125.897C123.443 125.722 123.128 125.483 122.898 125.18C122.667 124.87 122.539 124.516 122.516 124.118H123.638C123.67 124.444 123.821 124.711 124.091 124.918C124.37 125.125 124.732 125.228 125.178 125.228C125.592 125.228 125.918 125.137 126.157 124.954C126.396 124.771 126.515 124.54 126.515 124.261C126.515 123.975 126.388 123.764 126.133 123.629C125.878 123.485 125.484 123.346 124.951 123.211C124.466 123.083 124.068 122.956 123.757 122.829C123.455 122.693 123.192 122.498 122.969 122.244C122.754 121.981 122.647 121.639 122.647 121.217C122.647 120.883 122.746 120.576 122.945 120.298C123.144 120.019 123.427 119.8 123.793 119.641C124.159 119.474 124.577 119.39 125.047 119.39C125.771 119.39 126.356 119.573 126.801 119.94C127.247 120.306 127.486 120.807 127.518 121.444H126.431C126.407 121.102 126.268 120.827 126.014 120.62C125.767 120.413 125.433 120.31 125.011 120.31C124.621 120.31 124.31 120.393 124.08 120.56C123.849 120.728 123.733 120.946 123.733 121.217C123.733 121.432 123.801 121.611 123.936 121.754C124.08 121.89 124.255 122.001 124.462 122.088C124.676 122.168 124.971 122.26 125.345 122.363C125.815 122.49 126.197 122.618 126.491 122.745C126.786 122.864 127.036 123.048 127.243 123.294C127.458 123.541 127.569 123.863 127.577 124.261C127.577 124.619 127.478 124.942 127.279 125.228C127.08 125.515 126.797 125.742 126.431 125.909C126.073 126.068 125.659 126.147 125.19 126.147ZM131.964 126.147C131.351 126.147 130.794 126.008 130.293 125.73C129.799 125.451 129.409 125.057 129.123 124.548C128.844 124.03 128.705 123.434 128.705 122.757C128.705 122.088 128.848 121.5 129.135 120.99C129.429 120.473 129.827 120.079 130.329 119.808C130.83 119.53 131.391 119.39 132.012 119.39C132.633 119.39 133.194 119.53 133.695 119.808C134.197 120.079 134.591 120.469 134.877 120.978C135.172 121.488 135.319 122.081 135.319 122.757C135.319 123.434 135.168 124.03 134.865 124.548C134.571 125.057 134.169 125.451 133.659 125.73C133.15 126.008 132.585 126.147 131.964 126.147ZM131.964 125.192C132.354 125.192 132.72 125.101 133.063 124.918C133.405 124.735 133.679 124.46 133.886 124.094C134.101 123.728 134.209 123.282 134.209 122.757C134.209 122.232 134.105 121.786 133.898 121.42C133.691 121.054 133.421 120.783 133.086 120.608C132.752 120.425 132.39 120.334 132 120.334C131.602 120.334 131.236 120.425 130.902 120.608C130.575 120.783 130.313 121.054 130.114 121.42C129.915 121.786 129.815 122.232 129.815 122.757C129.815 123.29 129.911 123.74 130.102 124.106C130.301 124.472 130.563 124.747 130.89 124.93C131.216 125.105 131.574 125.192 131.964 125.192ZM137.834 117.206V126.04H136.747V117.206H137.834ZM140.246 118.435C140.039 118.435 139.864 118.364 139.721 118.22C139.578 118.077 139.506 117.902 139.506 117.695C139.506 117.488 139.578 117.313 139.721 117.17C139.864 117.027 140.039 116.955 140.246 116.955C140.445 116.955 140.612 117.027 140.748 117.17C140.891 117.313 140.963 117.488 140.963 117.695C140.963 117.902 140.891 118.077 140.748 118.22C140.612 118.364 140.445 118.435 140.246 118.435ZM140.772 119.498V126.04H139.685V119.498H140.772ZM142.217 122.745C142.217 122.077 142.353 121.492 142.623 120.99C142.894 120.481 143.264 120.087 143.733 119.808C144.211 119.53 144.744 119.39 145.333 119.39C145.842 119.39 146.316 119.51 146.754 119.749C147.191 119.979 147.526 120.286 147.757 120.668V117.206H148.855V126.04H147.757V124.81C147.542 125.2 147.223 125.523 146.802 125.777C146.38 126.024 145.886 126.147 145.321 126.147C144.74 126.147 144.211 126.004 143.733 125.718C143.264 125.431 142.894 125.029 142.623 124.512C142.353 123.995 142.217 123.406 142.217 122.745ZM147.757 122.757C147.757 122.264 147.657 121.834 147.458 121.468C147.259 121.102 146.989 120.823 146.646 120.632C146.312 120.433 145.942 120.334 145.536 120.334C145.13 120.334 144.76 120.429 144.426 120.62C144.092 120.811 143.825 121.09 143.626 121.456C143.427 121.822 143.327 122.252 143.327 122.745C143.327 123.246 143.427 123.684 143.626 124.058C143.825 124.424 144.092 124.707 144.426 124.906C144.76 125.097 145.13 125.192 145.536 125.192C145.942 125.192 146.312 125.097 146.646 124.906C146.989 124.707 147.259 124.424 147.458 124.058C147.657 123.684 147.757 123.25 147.757 122.757ZM151.252 118.435C151.045 118.435 150.87 118.364 150.727 118.22C150.583 118.077 150.512 117.902 150.512 117.695C150.512 117.488 150.583 117.313 150.727 117.17C150.87 117.027 151.045 116.955 151.252 116.955C151.451 116.955 151.618 117.027 151.753 117.17C151.897 117.313 151.968 117.488 151.968 117.695C151.968 117.902 151.897 118.077 151.753 118.22C151.618 118.364 151.451 118.435 151.252 118.435ZM151.777 119.498V126.04H150.691V119.498H151.777ZM154.954 120.393V124.249C154.954 124.568 155.021 124.794 155.157 124.93C155.292 125.057 155.527 125.121 155.861 125.121H156.661V126.04H155.682C155.077 126.04 154.624 125.901 154.321 125.622C154.019 125.344 153.867 124.886 153.867 124.249V120.393H153.02V119.498H153.867V117.85H154.954V119.498H156.661V120.393H154.954ZM163.612 119.498L159.673 129.12H158.55L159.84 125.968L157.201 119.498H158.407L160.46 124.798L162.49 119.498H163.612ZM167.708 121.635C167.708 120.266 167.931 119.199 168.376 118.435C168.822 117.663 169.602 117.277 170.716 117.277C171.823 117.277 172.599 117.663 173.044 118.435C173.49 119.199 173.713 120.266 173.713 121.635C173.713 123.028 173.49 124.11 173.044 124.882C172.599 125.654 171.823 126.04 170.716 126.04C169.602 126.04 168.822 125.654 168.376 124.882C167.931 124.11 167.708 123.028 167.708 121.635ZM172.638 121.635C172.638 120.942 172.591 120.357 172.495 119.88C172.408 119.394 172.221 119.004 171.934 118.71C171.655 118.415 171.25 118.268 170.716 118.268C170.175 118.268 169.761 118.415 169.475 118.71C169.196 119.004 169.009 119.394 168.914 119.88C168.826 120.357 168.782 120.942 168.782 121.635C168.782 122.351 168.826 122.952 168.914 123.438C169.009 123.923 169.196 124.313 169.475 124.607C169.761 124.902 170.175 125.049 170.716 125.049C171.25 125.049 171.655 124.902 171.934 124.607C172.221 124.313 172.408 123.923 172.495 123.438C172.591 122.952 172.638 122.351 172.638 121.635ZM175.73 126.112C175.523 126.112 175.348 126.04 175.204 125.897C175.061 125.754 174.989 125.578 174.989 125.371C174.989 125.165 175.061 124.989 175.204 124.846C175.348 124.703 175.523 124.631 175.73 124.631C175.928 124.631 176.096 124.703 176.231 124.846C176.374 124.989 176.446 125.165 176.446 125.371C176.446 125.578 176.374 125.754 176.231 125.897C176.096 126.04 175.928 126.112 175.73 126.112ZM179.287 121.551C178.841 121.376 178.499 121.121 178.26 120.787C178.021 120.453 177.902 120.047 177.902 119.57C177.902 119.14 178.009 118.754 178.224 118.412C178.439 118.061 178.757 117.787 179.179 117.588C179.609 117.381 180.126 117.277 180.731 117.277C181.336 117.277 181.849 117.381 182.271 117.588C182.701 117.787 183.023 118.061 183.238 118.412C183.461 118.754 183.572 119.14 183.572 119.57C183.572 120.031 183.449 120.437 183.202 120.787C182.956 121.129 182.617 121.384 182.188 121.551C182.681 121.702 183.071 121.969 183.358 122.351C183.652 122.725 183.799 123.179 183.799 123.712C183.799 124.229 183.672 124.683 183.417 125.073C183.163 125.455 182.8 125.754 182.331 125.968C181.869 126.175 181.336 126.279 180.731 126.279C180.126 126.279 179.593 126.175 179.131 125.968C178.678 125.754 178.324 125.455 178.069 125.073C177.814 124.683 177.687 124.229 177.687 123.712C177.687 123.179 177.83 122.721 178.117 122.339C178.403 121.957 178.793 121.695 179.287 121.551ZM182.522 119.701C182.522 119.215 182.363 118.841 182.044 118.579C181.726 118.316 181.288 118.185 180.731 118.185C180.182 118.185 179.748 118.316 179.43 118.579C179.112 118.841 178.952 119.219 178.952 119.713C178.952 120.158 179.116 120.517 179.442 120.787C179.776 121.058 180.206 121.193 180.731 121.193C181.264 121.193 181.694 121.058 182.021 120.787C182.355 120.509 182.522 120.147 182.522 119.701ZM180.731 122.029C180.142 122.029 179.661 122.168 179.287 122.447C178.913 122.717 178.726 123.127 178.726 123.676C178.726 124.186 178.905 124.596 179.263 124.906C179.629 125.216 180.118 125.371 180.731 125.371C181.344 125.371 181.83 125.216 182.188 124.906C182.546 124.596 182.725 124.186 182.725 123.676C182.725 123.143 182.542 122.737 182.176 122.459C181.81 122.172 181.328 122.029 180.731 122.029ZM185.767 126.112C185.561 126.112 185.385 126.04 185.242 125.897C185.099 125.754 185.027 125.578 185.027 125.371C185.027 125.165 185.099 124.989 185.242 124.846C185.385 124.703 185.561 124.631 185.767 124.631C185.966 124.631 186.134 124.703 186.269 124.846C186.412 124.989 186.484 125.165 186.484 125.371C186.484 125.578 186.412 125.754 186.269 125.897C186.134 126.04 185.966 126.112 185.767 126.112ZM187.749 121.635C187.749 120.266 187.972 119.199 188.417 118.435C188.863 117.663 189.643 117.277 190.757 117.277C191.863 117.277 192.639 117.663 193.085 118.435C193.531 119.199 193.754 120.266 193.754 121.635C193.754 123.028 193.531 124.11 193.085 124.882C192.639 125.654 191.863 126.04 190.757 126.04C189.643 126.04 188.863 125.654 188.417 124.882C187.972 124.11 187.749 123.028 187.749 121.635ZM192.679 121.635C192.679 120.942 192.631 120.357 192.536 119.88C192.448 119.394 192.261 119.004 191.975 118.71C191.696 118.415 191.29 118.268 190.757 118.268C190.216 118.268 189.802 118.415 189.516 118.71C189.237 119.004 189.05 119.394 188.954 119.88C188.867 120.357 188.823 120.942 188.823 121.635C188.823 122.351 188.867 122.952 188.954 123.438C189.05 123.923 189.237 124.313 189.516 124.607C189.802 124.902 190.216 125.049 190.757 125.049C191.29 125.049 191.696 124.902 191.975 124.607C192.261 124.313 192.448 123.923 192.536 123.438C192.631 122.952 192.679 122.351 192.679 121.635ZM196.057 120.99C195.85 120.99 195.675 120.919 195.532 120.775C195.388 120.632 195.317 120.457 195.317 120.25C195.317 120.043 195.388 119.868 195.532 119.725C195.675 119.581 195.85 119.51 196.057 119.51C196.256 119.51 196.423 119.581 196.558 119.725C196.702 119.868 196.773 120.043 196.773 120.25C196.773 120.457 196.702 120.632 196.558 120.775C196.423 120.919 196.256 120.99 196.057 120.99ZM196.845 124.536L195.508 127.747H194.78L195.651 124.536H196.845Z" fill="black"/>
<path d="M87.1697 80.489C85.5505 78.2401 84.2321 76.3951 84.24 76.3888C84.2476 76.3824 85.5651 77.1749 87.1669 78.1496C88.7688 79.1243 90.1047 79.9228 90.1357 79.924C90.18 79.9257 92.8765 78.2691 95.6047 76.564C95.7853 76.4509 95.9192 76.3832 95.9014 76.4137C95.7891 76.6046 90.1647 84.5778 90.142 84.5778C90.1268 84.5778 88.789 82.7378 87.1697 80.489ZM87.147 77.0999C85.4873 76.1318 84.1736 75.3399 84.1758 75.3091C84.1796 75.2438 90.1081 65.5527 90.1432 65.5527C90.1773 65.5527 96.1059 75.2441 96.1107 75.3099C96.1134 75.355 90.2196 78.8379 90.1432 78.836C90.1319 78.8357 88.7834 78.0544 87.147 77.0999Z" fill="black"/>
<path d="M105.435 77.3425C105.435 76.267 105.677 75.3023 106.163 74.4482C106.648 73.5836 107.307 72.9088 108.14 72.4238C108.983 71.9387 109.916 71.6962 110.939 71.6962C112.141 71.6962 113.19 71.9862 114.086 72.5661C114.983 73.146 115.636 73.9685 116.047 75.0334H114.324C114.018 74.3691 113.575 73.8577 112.995 73.4992C112.426 73.1407 111.74 72.9615 110.939 72.9615C110.169 72.9615 109.479 73.1407 108.867 73.4992C108.255 73.8577 107.776 74.3691 107.428 75.0334C107.08 75.6871 106.906 76.4568 106.906 77.3425C106.906 78.2177 107.08 78.9874 107.428 79.6517C107.776 80.3054 108.255 80.8115 108.867 81.17C109.479 81.5285 110.169 81.7077 110.939 81.7077C111.74 81.7077 112.426 81.5338 112.995 81.1858C113.575 80.8273 114.018 80.3159 114.324 79.6517H116.047C115.636 80.7061 114.983 81.5232 114.086 82.1031C113.19 82.6725 112.141 82.9572 110.939 82.9572C109.916 82.9572 108.983 82.72 108.14 82.2455C107.307 81.7605 106.648 81.0909 106.163 80.2369C105.677 79.3828 105.435 78.418 105.435 77.3425ZM121.97 83.0046C121.158 83.0046 120.42 82.8201 119.756 82.4511C119.102 82.082 118.585 81.5601 118.206 80.8853C117.837 80.1999 117.652 79.4091 117.652 78.5129C117.652 77.6272 117.842 76.847 118.222 76.1721C118.612 75.4868 119.139 74.9649 119.803 74.6064C120.467 74.2373 121.211 74.0528 122.033 74.0528C122.856 74.0528 123.599 74.2373 124.263 74.6064C124.928 74.9649 125.449 75.4815 125.829 76.1563C126.219 76.8311 126.414 77.6167 126.414 78.5129C126.414 79.4091 126.214 80.1999 125.813 80.8853C125.423 81.5601 124.891 82.082 124.216 82.4511C123.541 82.8201 122.792 83.0046 121.97 83.0046ZM121.97 81.7394C122.487 81.7394 122.972 81.6181 123.425 81.3756C123.878 81.1331 124.242 80.7693 124.516 80.2843C124.801 79.7993 124.943 79.2088 124.943 78.5129C124.943 77.817 124.806 77.2265 124.532 76.7415C124.258 76.2565 123.9 75.898 123.457 75.666C123.014 75.4235 122.534 75.3023 122.017 75.3023C121.49 75.3023 121.005 75.4235 120.562 75.666C120.13 75.898 119.782 76.2565 119.518 76.7415C119.255 77.2265 119.123 77.817 119.123 78.5129C119.123 79.2194 119.25 79.8151 119.503 80.3001C119.766 80.7851 120.114 81.1489 120.547 81.3914C120.979 81.6234 121.453 81.7394 121.97 81.7394ZM132.529 74.037C133.584 74.037 134.438 74.3586 135.092 75.0018C135.745 75.6344 136.072 76.5517 136.072 77.7537V82.8623H134.649V77.9594C134.649 77.0947 134.433 76.4357 134 75.9824C133.568 75.5184 132.978 75.2865 132.229 75.2865C131.47 75.2865 130.864 75.5237 130.41 75.9982C129.967 76.4726 129.746 77.1633 129.746 78.0701V82.8623H128.307V74.1951H129.746V75.4288C130.031 74.9859 130.415 74.6433 130.9 74.4008C131.396 74.1582 131.939 74.037 132.529 74.037ZM140.179 75.3813V80.4899C140.179 80.9117 140.268 81.2122 140.448 81.3914C140.627 81.5601 140.938 81.6445 141.381 81.6445H142.441V82.8623H141.144C140.342 82.8623 139.741 82.6778 139.341 82.3087C138.94 81.9397 138.74 81.3334 138.74 80.4899V75.3813H137.617V74.1951H138.74V72.0125H140.179V74.1951H142.441V75.3813H140.179ZM145.624 75.6028C145.877 75.1072 146.235 74.7223 146.699 74.4482C147.174 74.1741 147.748 74.037 148.423 74.037V75.5237H148.043C146.43 75.5237 145.624 76.3988 145.624 78.1491V82.8623H144.184V74.1951H145.624V75.6028ZM149.547 78.4971C149.547 77.6114 149.726 76.8364 150.084 76.1721C150.443 75.4973 150.933 74.9754 151.555 74.6064C152.188 74.2373 152.889 74.0528 153.659 74.0528C154.418 74.0528 155.077 74.2162 155.636 74.5431C156.195 74.87 156.611 75.2812 156.885 75.7767V74.1951H158.34V82.8623H156.885V81.2491C156.601 81.7552 156.174 82.1769 155.604 82.5144C155.045 82.8412 154.392 83.0046 153.643 83.0046C152.873 83.0046 152.177 82.8149 151.555 82.4353C150.933 82.0557 150.443 81.5232 150.084 80.8379C149.726 80.1525 149.547 79.3722 149.547 78.4971ZM156.885 78.5129C156.885 77.8592 156.754 77.2898 156.49 76.8048C156.226 76.3198 155.868 75.9507 155.414 75.6977C154.972 75.4341 154.481 75.3023 153.944 75.3023C153.406 75.3023 152.916 75.4288 152.473 75.6818C152.03 75.9349 151.677 76.3039 151.413 76.789C151.149 77.274 151.018 77.8434 151.018 78.4971C151.018 79.1614 151.149 79.7413 151.413 80.2369C151.677 80.7219 152.03 81.0962 152.473 81.3598C152.916 81.6128 153.406 81.7394 153.944 81.7394C154.481 81.7394 154.972 81.6128 155.414 81.3598C155.868 81.0962 156.226 80.7219 156.49 80.2369C156.754 79.7413 156.885 79.1666 156.885 78.5129ZM160.235 78.5129C160.235 77.6167 160.414 76.8364 160.773 76.1721C161.131 75.4973 161.627 74.9754 162.259 74.6064C162.902 74.2373 163.635 74.0528 164.458 74.0528C165.523 74.0528 166.398 74.3111 167.083 74.8278C167.779 75.3444 168.238 76.0614 168.459 76.9788H166.909C166.762 76.4516 166.472 76.0351 166.039 75.7293C165.618 75.4235 165.09 75.2706 164.458 75.2706C163.635 75.2706 162.971 75.5553 162.465 76.1247C161.959 76.6835 161.706 77.4796 161.706 78.5129C161.706 79.5568 161.959 80.3634 162.465 80.9328C162.971 81.5021 163.635 81.7868 164.458 81.7868C165.09 81.7868 165.618 81.6392 166.039 81.344C166.461 81.0487 166.751 80.627 166.909 80.0787H168.459C168.227 80.9644 167.763 81.6761 167.067 82.2138C166.371 82.741 165.502 83.0046 164.458 83.0046C163.635 83.0046 162.902 82.8201 162.259 82.4511C161.627 82.082 161.131 81.5601 160.773 80.8853C160.414 80.2105 160.235 79.4197 160.235 78.5129ZM172.135 75.3813V80.4899C172.135 80.9117 172.225 81.2122 172.404 81.3914C172.583 81.5601 172.894 81.6445 173.337 81.6445H174.397V82.8623H173.1C172.299 82.8623 171.698 82.6778 171.297 82.3087C170.896 81.9397 170.696 81.3334 170.696 80.4899V75.3813H169.573V74.1951H170.696V72.0125H172.135V74.1951H174.397V75.3813H172.135ZM176.599 82.9572C176.325 82.9572 176.093 82.8623 175.903 82.6725C175.714 82.4827 175.619 82.2508 175.619 81.9766C175.619 81.7025 175.714 81.4705 175.903 81.2807C176.093 81.0909 176.325 80.996 176.599 80.996C176.863 80.996 177.084 81.0909 177.264 81.2807C177.453 81.4705 177.548 81.7025 177.548 81.9766C177.548 82.2508 177.453 82.4827 177.264 82.6725C177.084 82.8623 176.863 82.9572 176.599 82.9572ZM182.53 83.0046C181.865 83.0046 181.27 82.8939 180.743 82.6725C180.215 82.4405 179.799 82.1242 179.493 81.7236C179.187 81.3123 179.019 80.8431 178.987 80.3159H180.474C180.516 80.7482 180.716 81.1015 181.075 81.3756C181.444 81.6497 181.923 81.7868 182.514 81.7868C183.062 81.7868 183.494 81.6656 183.811 81.4231C184.127 81.1805 184.285 80.8748 184.285 80.5057C184.285 80.1261 184.117 79.8467 183.779 79.6675C183.442 79.4777 182.92 79.2932 182.213 79.1139C181.57 78.9452 181.043 78.7765 180.632 78.6078C180.231 78.4286 179.883 78.1702 179.588 77.8328C179.303 77.4849 179.161 77.0315 179.161 76.4726C179.161 76.0298 179.293 75.6239 179.556 75.2548C179.82 74.8858 180.194 74.5958 180.679 74.3849C181.164 74.1635 181.718 74.0528 182.34 74.0528C183.299 74.0528 184.074 74.2953 184.665 74.7803C185.255 75.2654 185.572 75.9296 185.614 76.7732H184.175C184.143 76.3198 183.958 75.956 183.621 75.6818C183.294 75.4077 182.851 75.2706 182.292 75.2706C181.776 75.2706 181.365 75.3813 181.059 75.6028C180.753 75.8242 180.6 76.1142 180.6 76.4726C180.6 76.7573 180.69 76.9946 180.869 77.1844C181.059 77.3636 181.291 77.5112 181.565 77.6272C181.85 77.7327 182.24 77.8539 182.735 77.991C183.357 78.1597 183.864 78.3284 184.254 78.4971C184.644 78.6553 184.976 78.8978 185.25 79.2246C185.535 79.5515 185.682 79.9785 185.693 80.5057C185.693 80.9802 185.561 81.4072 185.298 81.7868C185.034 82.1664 184.66 82.4669 184.175 82.6883C183.7 82.8992 183.152 83.0046 182.53 83.0046ZM191.505 83.0046C190.693 83.0046 189.955 82.8201 189.29 82.4511C188.637 82.082 188.12 81.5601 187.74 80.8853C187.371 80.1999 187.187 79.4091 187.187 78.5129C187.187 77.6272 187.377 76.847 187.756 76.1721C188.146 75.4868 188.674 74.9649 189.338 74.6064C190.002 74.2373 190.745 74.0528 191.568 74.0528C192.39 74.0528 193.134 74.2373 193.798 74.6064C194.462 74.9649 194.984 75.4815 195.364 76.1563C195.754 76.8311 195.949 77.6167 195.949 78.5129C195.949 79.4091 195.749 80.1999 195.348 80.8853C194.958 81.5601 194.425 82.082 193.751 82.4511C193.076 82.8201 192.327 83.0046 191.505 83.0046ZM191.505 81.7394C192.021 81.7394 192.506 81.6181 192.96 81.3756C193.413 81.1331 193.777 80.7693 194.051 80.2843C194.336 79.7993 194.478 79.2088 194.478 78.5129C194.478 77.817 194.341 77.2265 194.067 76.7415C193.793 76.2565 193.434 75.898 192.991 75.666C192.549 75.4235 192.069 75.3023 191.552 75.3023C191.025 75.3023 190.54 75.4235 190.097 75.666C189.665 75.898 189.317 76.2565 189.053 76.7415C188.79 77.2265 188.658 77.817 188.658 78.5129C188.658 79.2194 188.784 79.8151 189.037 80.3001C189.301 80.7851 189.649 81.1489 190.081 81.3914C190.514 81.6234 190.988 81.7394 191.505 81.7394ZM199.281 71.1585V82.8623H197.841V71.1585H199.281Z" fill="black"/>
<path d="M480.005 0H7.76056C3.47454 0 0 3.4745 0 7.76052V515.555C0 519.841 3.47454 523.315 7.76056 523.315H480.005C484.291 523.315 487.765 519.841 487.765 515.555V7.76052C487.765 3.4745 484.291 0 480.005 0Z" fill="url(#paint1_linear_616_218)"/>
<path d="M125.692 5.39767L125.692 487.776C125.692 490.757 128.109 493.174 131.09 493.174H484.261C487.242 493.174 489.659 490.757 489.659 487.776L489.659 5.39767C489.659 2.41675 487.242 0.000244141 484.261 0.000244141H131.09C128.109 0.000244141 125.692 2.41675 125.692 5.39767Z" fill="url(#paint2_linear_616_218)"/>
</g>
<defs>
<linearGradient id="paint0_linear_616_218" x1="1.61856e-06" y1="296.462" x2="487.815" y2="298.741" gradientUnits="userSpaceOnUse">
<stop stop-color="#080444"/>
<stop offset="1" stop-color="#0055FF"/>
</linearGradient>
<linearGradient id="paint1_linear_616_218" x1="300.419" y1="484.345" x2="300.419" y2="229.007" gradientUnits="userSpaceOnUse">
<stop stop-color="white"/>
<stop offset="1" stop-color="white" stop-opacity="0"/>
</linearGradient>
<linearGradient id="paint2_linear_616_218" x1="462.553" y1="189.424" x2="126.386" y2="190.642" gradientUnits="userSpaceOnUse">
<stop stop-color="white"/>
<stop offset="1" stop-color="white" stop-opacity="0"/>
</linearGradient>
<clipPath id="clip0_616_218">
<rect width="489.659" height="523.315" fill="white"/>
</clipPath>
</defs>
</svg>
