<svg width="760" height="312" viewBox="0 0 760 312" fill="none" xmlns="http://www.w3.org/2000/svg">
<g clip-path="url(#clip0_616_232)">
<path opacity="0.192" d="M759.387 0H0V311.844H759.387V0Z" fill="white"/>
<path d="M63.1599 188.674C62.7559 188.249 41.686 150.682 41.6303 150.287L41.5786 149.921L63.3642 149.882L85.1498 149.844L85.5013 149.276C85.6946 148.964 90.5815 140.296 96.3612 130.015C102.141 119.734 106.968 111.284 107.087 111.238C107.207 111.192 107.395 111.249 107.505 111.365C107.859 111.737 128.662 148.805 128.885 149.461C129.079 150.031 129.072 150.168 128.82 150.841C128.447 151.839 107.795 188.491 107.464 188.742C107.255 188.901 103.019 188.938 85.3045 188.934C64.9403 188.93 63.3865 188.912 63.1599 188.674ZM52.4153 111.876C46.6218 101.577 41.7632 92.8295 41.6183 92.4371C41.3663 91.7541 41.367 91.6909 41.6355 90.9641C42.0105 89.9491 62.64 53.3185 62.9834 53.058C63.2056 52.8894 67.0385 52.8532 85.1214 52.8492C105.748 52.8447 107.006 52.8595 107.263 53.1097C107.73 53.5641 128.803 91.2083 128.803 91.5882V91.9477H107.049H85.2943L84.9584 92.5114C84.7736 92.8215 79.8794 101.5 74.0822 111.798C66.1741 125.845 63.468 130.531 63.2455 130.561C62.9982 130.594 61.2019 127.495 52.4153 111.876Z" fill="#D2D2D2"/>
<path d="M52.5891 169.693C46.2483 158.408 41.8106 150.354 41.8611 150.222C41.9365 150.026 44.6454 149.993 63.636 149.959L85.3249 149.921L96.1803 130.634C102.151 120.027 107.115 111.348 107.212 111.348C107.346 111.348 126.09 144.406 128.643 149.144C129.119 150.028 129.121 150.038 128.864 150.584C128.544 151.266 107.606 188.497 107.396 188.759C107.275 188.909 102.682 188.947 85.3235 188.944L63.4033 188.939L52.5891 169.693ZM52.6742 111.992C46.9657 101.843 42.0789 93.1388 41.8146 92.6491C41.3372 91.7644 41.3358 91.7554 41.5929 91.2093C41.9199 90.5147 62.3201 54.1816 62.8149 53.4126L63.1809 52.8438L85.1172 52.8821L107.053 52.9205L117.847 72.0932C123.783 82.6382 128.625 91.3683 128.606 91.4933C128.575 91.6938 126.002 91.7296 106.841 91.7964L85.1111 91.8722L74.261 111.159C68.2934 121.766 63.3304 130.445 63.2321 130.445C63.1337 130.445 58.3827 122.141 52.6742 111.992Z" fill="#9D9D9D"/>
<path d="M63.468 188.91C63.4617 188.89 63.4346 188.77 63.408 188.645C63.3814 188.52 58.5433 179.858 52.6566 169.397L41.9535 150.376L63.5479 150.3C82.4786 150.233 85.1691 150.196 85.3595 149.997C85.479 149.872 90.3297 141.312 96.1389 130.976C101.948 120.639 106.804 112.02 106.93 111.823C107.123 111.523 107.191 111.498 107.356 111.672C107.464 111.785 112.31 120.336 118.125 130.672C123.941 141.009 128.785 149.603 128.891 149.769C129.063 150.041 127.952 152.082 118.144 169.508L107.206 188.944L85.3426 188.946C73.318 188.948 63.4744 188.931 63.468 188.91ZM63.065 130.11C62.9773 130.003 58.1862 121.526 52.418 111.272C46.6497 101.019 41.8062 92.4255 41.6546 92.1754L41.3789 91.7207L52.1347 72.6237C58.0504 62.1204 62.9532 53.3731 63.0299 53.1853L63.1694 52.8438L85.0972 52.8821C104.453 52.916 107.029 52.9472 107.059 53.1479C107.078 53.2729 111.909 61.9347 117.794 72.3964L128.495 91.4175L106.905 91.4933C87.9825 91.5597 85.2879 91.5972 85.092 91.7965C84.969 91.9215 80.0582 100.578 74.1791 111.032C68.2999 121.487 63.43 130.101 63.357 130.174C63.2811 130.25 63.1561 130.223 63.065 130.11Z" fill="#000D26"/>
<path d="M63.5649 188.615C63.7791 187.94 84.9326 150.517 85.2655 150.224C85.455 150.057 90.4426 141.327 96.349 130.824C102.256 120.321 107.142 111.727 107.209 111.727C107.275 111.727 112.089 120.181 117.908 130.514C123.726 140.847 128.579 149.41 128.692 149.542C129.072 149.985 129.11 150.123 128.91 150.325C128.637 150.603 107.281 188.573 107.281 188.781C107.281 188.902 101.245 188.948 85.3701 188.948H63.459L63.5649 188.615ZM63.0819 129.966C63.0112 129.854 58.2032 121.326 52.3976 111.014C46.592 100.702 41.7316 92.1551 41.5966 92.0202C41.3007 91.7243 41.3002 91.7182 41.5491 91.4662C41.8055 91.2068 63.1763 53.1903 63.1763 52.9937C63.1763 52.8968 70.8265 52.8447 85.063 52.8447H106.95L106.864 53.1728C106.7 53.7988 85.713 90.9656 85.2253 91.4933C84.9556 91.7851 79.9452 100.549 74.0911 110.969C68.237 121.389 63.394 129.972 63.3289 130.041C63.2638 130.111 63.1527 130.077 63.0819 129.966Z" fill="#4E4E4E"/>
<path d="M63.6655 188.683C63.7936 188.537 68.6535 179.961 74.4652 169.624C80.277 159.287 85.2616 150.489 85.5421 150.072C85.8226 149.656 90.7851 140.903 96.5698 130.623C102.355 120.342 107.143 111.929 107.211 111.928C107.279 111.926 112.128 120.439 117.986 130.845C123.845 141.251 128.71 149.789 128.797 149.818C129.022 149.893 128.992 150.312 128.748 150.51C128.549 150.672 107.433 188.143 107.236 188.683C107.144 188.934 105.961 188.948 85.2858 188.948C64.4855 188.948 63.4438 188.936 63.6655 188.683ZM62.9115 129.509C62.7447 129.232 57.954 120.718 52.2655 110.59C46.577 100.462 41.8283 92.0996 41.7128 92.0071C41.4457 91.793 41.4446 91.4983 41.7099 91.2827C41.8892 91.137 62.3073 54.9458 63.0749 53.4131L63.3596 52.8447H85.1733H106.987L106.682 53.2615C106.514 53.4908 101.643 62.1014 95.8564 72.3964C90.07 82.6913 85.1971 91.2898 85.0279 91.5041C84.8586 91.7184 79.9312 100.414 74.0781 110.828C68.225 121.242 63.3863 129.819 63.3254 129.888C63.2645 129.956 63.0783 129.786 62.9115 129.509Z" fill="#080444"/>
<path d="M106.935 188.607C106.726 188.45 86.3746 152.46 85.6447 150.956C85.4208 150.495 85.4289 150.449 85.8506 149.809C86.0921 149.443 90.9957 140.78 96.7475 130.557C106.272 113.63 107.222 112.001 107.39 112.304C112.725 121.924 128.653 149.91 128.778 149.883C128.986 149.838 129.02 150.251 128.814 150.325C128.641 150.387 107.248 188.344 107.238 188.607C107.234 188.712 107.221 188.797 107.209 188.797C107.197 188.797 107.074 188.712 106.935 188.607ZM63.0798 129.512C63.0078 129.402 58.204 120.887 52.4045 110.592C46.6051 100.296 41.7797 91.8893 41.6814 91.9102C41.4463 91.9601 41.4528 91.6733 41.6922 91.4338C41.9867 91.1392 63.2573 53.2561 63.2111 53.1086C63.1886 53.0367 63.2868 53.0431 63.4293 53.1229C63.6339 53.2374 83.855 88.9114 84.8139 90.8496C85.0477 91.322 85.0431 91.3625 84.7024 91.8233C84.5069 92.0877 79.6458 100.664 73.8999 110.882C68.154 121.1 63.3983 129.517 63.3317 129.587C63.265 129.657 63.1517 129.623 63.0798 129.512Z" fill="#080444"/>
<path d="M106.898 188.183C105.539 185.986 85.6596 150.34 85.7136 150.199C85.8322 149.89 128.696 149.898 128.625 150.207C128.54 150.571 107.231 188.342 107.111 188.342C107.047 188.342 106.952 188.271 106.898 188.183ZM41.8057 91.6587C41.8057 91.3624 63.2261 53.4424 63.3669 53.4893C63.4494 53.5168 68.3099 62.0619 74.1681 72.4784C81.934 86.2869 84.7774 91.4688 84.6644 91.6069C84.5417 91.7569 80.0552 91.7964 63.1575 91.7964C50.452 91.7964 41.8057 91.7406 41.8057 91.6587Z" fill="#00246B"/>
<path d="M179.788 254.5C159.022 225.229 155.057 219.616 155.109 219.563C155.141 219.531 162.041 223.563 170.442 228.524C180.323 234.359 185.799 237.522 185.952 237.482C186.131 237.435 201.209 228.575 216.349 219.62C216.772 219.369 216.781 219.369 216.647 219.611C216.305 220.224 185.998 262.794 185.874 262.836C185.797 262.862 183.058 259.11 179.788 254.5ZM170.666 221.883C162.144 216.845 155.113 212.665 155.041 212.593C154.953 212.505 160.009 203.998 170.567 186.474C179.179 172.18 186.268 160.472 186.322 160.456C186.428 160.424 217.731 212.336 217.709 212.507C217.691 212.644 186.523 231.049 186.317 231.045C186.231 231.044 179.188 226.92 170.666 221.883Z" fill="#0055FF" stroke="black" stroke-width="1.52578"/>
<path d="M186.709 85.4711C186.344 84.8423 179.965 73.7865 169.233 55.1822C165.941 49.4765 160.736 40.4559 157.666 35.1363C154.597 29.8167 151.947 25.2095 151.779 24.8982C151.611 24.5869 148.956 19.9738 145.88 14.6469C142.803 9.32001 140.241 4.86289 140.186 4.7422C140.107 4.56898 140.114 4.5053 140.217 4.44001C140.294 4.39118 145.11 4.35669 151.95 4.3559C161.474 4.35488 163.582 4.3762 163.717 4.47525C163.808 4.54167 166.456 9.05377 169.602 14.5022C172.748 19.9506 175.362 24.4213 175.411 24.4371C175.461 24.4528 178.095 19.9713 181.265 14.4781C185.431 7.25837 187.072 4.49039 187.186 4.49039C187.3 4.49039 188.942 7.25936 193.11 14.4789C196.281 19.9725 198.915 24.4545 198.963 24.4388C199.01 24.4231 201.588 20.0099 204.69 14.6316C207.792 9.25326 210.429 4.74068 210.55 4.60365L210.77 4.35449L222.4 4.35563C228.975 4.35632 234.085 4.39183 234.156 4.43705C234.229 4.48295 234.258 4.58187 234.225 4.66855C234.194 4.75189 231.641 9.19599 228.553 14.5444C225.465 19.8929 222.799 24.5277 222.628 24.844C222.456 25.1603 219.752 29.8632 216.617 35.2947C213.481 40.7263 208.188 49.8998 204.854 55.6802C189.248 82.7337 187.331 86.0336 187.203 86.0597C187.117 86.0776 186.937 85.8638 186.709 85.4711Z" fill="#0055FF"/>
<path d="M186.532 84.9723C185.486 83.1727 167.383 51.7773 157.733 35.0235C154.546 29.4922 151.874 24.824 151.794 24.6496C151.714 24.4752 149.097 19.9135 145.978 14.5125C142.859 9.11149 140.329 4.65727 140.356 4.61422C140.43 4.49436 163.619 4.5132 163.739 4.63318C163.792 4.68675 166.42 9.21115 169.578 14.6875C172.737 20.1639 175.365 24.6457 175.418 24.6471C175.473 24.6482 178.117 20.1443 181.296 14.638C184.475 9.13165 187.126 4.62647 187.187 4.62647C187.248 4.62647 189.899 9.13165 193.078 14.638C196.256 20.1443 198.891 24.6495 198.934 24.6495C199.045 24.6495 198.934 24.8376 204.946 14.4115C207.977 9.15429 210.518 4.78164 210.593 4.69444C210.721 4.54497 211.394 4.53589 222.351 4.53589C228.744 4.53589 233.996 4.5704 234.022 4.61247C234.048 4.65464 231.539 9.06805 228.447 14.4201C225.354 19.7722 222.737 24.3346 222.63 24.5589C222.523 24.7831 219.864 29.431 216.72 34.8875C190.827 79.8289 187.342 85.8498 187.206 85.8782C187.123 85.8954 186.877 85.5643 186.532 84.9723Z" fill="#0055FF"/>
<path d="M181.165 75.5445C177.911 69.9011 172.619 60.7175 169.405 55.1364C166.191 49.5553 160.953 40.4678 157.767 34.9419C153.308 27.21 151.981 24.8404 152.008 24.6586C152.043 24.422 163.218 4.97248 163.467 4.71648C163.583 4.59595 163.613 4.60106 163.733 4.7618C163.806 4.86149 166.439 9.39913 169.583 14.8455C173.705 21.986 175.339 24.7404 175.441 24.7208C175.521 24.7055 178.076 20.3775 181.314 14.773C184.467 9.31667 187.063 4.81163 187.084 4.7618C187.106 4.70632 187.167 4.71521 187.241 4.78479C187.308 4.84726 189.934 9.35248 193.077 14.7963C197.181 21.9034 198.836 24.6941 198.948 24.6941C199.061 24.6941 200.734 21.8723 204.885 14.6827C208.349 8.68306 210.717 4.67115 210.796 4.67115C210.959 4.67115 222.384 24.4287 222.386 24.7141C222.386 24.8247 219.783 29.4318 216.6 34.9521C213.417 40.4724 208.171 49.5757 204.943 55.1817C190.615 80.0611 187.284 85.8051 187.186 85.8051C187.129 85.8051 184.419 81.1878 181.165 75.5445Z" fill="#0055FF"/>
<path d="M187.026 85.6122C186.782 85.2265 175.764 66.1152 175.437 65.5108C175.262 65.1869 172.612 60.5797 169.548 55.2727C166.483 49.9657 163.882 45.4402 163.768 45.2159C163.654 44.9917 160.975 40.3303 157.815 34.8572C154.655 29.3842 152.082 24.8352 152.098 24.7483C152.146 24.4723 163.537 4.80935 163.632 4.83764C163.682 4.85252 166.312 9.34682 169.477 14.825C173.798 22.3058 175.275 24.7916 175.411 24.8109C175.563 24.8324 176.507 23.2508 181.352 14.8585C184.521 9.37065 187.143 4.8743 187.179 4.86668C187.215 4.85879 189.841 9.34937 193.014 14.8452C197.863 23.2434 198.812 24.8333 198.963 24.8113C199.098 24.7917 200.589 22.2772 204.899 14.8001C208.065 9.30835 210.695 4.81435 210.745 4.81348C210.843 4.81122 222.234 24.499 222.279 24.7486C222.294 24.8316 219.791 29.2567 216.716 34.5821C213.641 39.9075 210.902 44.6723 210.63 45.1706C210.358 45.6689 207.698 50.2983 204.718 55.4582C201.739 60.618 199.171 65.0825 199.011 65.3791C198.437 66.4411 187.384 85.5816 187.274 85.7028C187.18 85.8058 187.139 85.7906 187.026 85.6122Z" fill="#0055FF"/>
<path d="M187.025 85.5215C186.656 84.9403 175.7 65.9042 175.456 65.42C175.3 65.112 172.674 60.5318 169.62 55.2418C163.697 44.9822 163.743 45.0634 163.795 44.964C163.814 44.9282 166.41 40.4224 169.566 34.9513C173.615 27.9315 175.343 25.0116 175.44 25.0304C175.516 25.0449 178.095 29.4194 181.172 34.7513C184.249 40.0832 186.854 44.5829 186.962 44.7506C187.112 44.9826 187.184 45.0303 187.264 44.95C187.323 44.892 189.941 40.3923 193.083 34.9507C197.096 27.9993 198.841 25.0569 198.948 25.0569C199.084 25.0569 201.601 29.3571 209.961 43.8714L210.622 45.0186L210.475 45.3033C210.394 45.4598 207.828 49.9176 204.773 55.2095C201.717 60.5014 199.105 65.0554 198.968 65.3295C198.627 66.01 187.414 85.4572 187.274 85.6121C187.18 85.7152 187.139 85.7 187.025 85.5215Z" fill="#0055FF"/>
<path d="M186.985 85.3369C186.886 85.1713 184.269 80.6416 181.17 75.271C177.453 68.8284 175.554 65.453 175.588 65.3501C175.695 65.0311 187.102 45.3682 187.184 45.3604C187.266 45.3525 198.831 65.2971 198.831 65.4461C198.831 65.5229 187.352 85.4403 187.237 85.5634C187.198 85.6044 187.085 85.5025 186.985 85.3369Z" fill="#0055FF"/>
</g>
<defs>
<clipPath id="clip0_616_232">
<rect width="759.387" height="311.844" fill="white"/>
</clipPath>
</defs>
</svg>
