<svg width="662" height="811" viewBox="0 0 662 811" fill="none" xmlns="http://www.w3.org/2000/svg">
<path d="M319.369 810.015C312.515 808.29 308.542 806.441 306.517 804.034C304.453 801.581 303.402 801.203 296.462 800.414C292.199 799.93 285.18 798.51 280.864 797.26C260.467 791.349 247.624 781.997 241.157 768.348L238.24 762.19L237.728 677.834C237.173 586.155 237.333 589.083 231.735 568.378C226.99 550.825 217.775 532.009 206.329 516.497C203.149 512.187 193.443 501.608 184.761 492.988C176.079 484.368 165.833 473.374 161.992 468.557C136.7 436.84 121.285 399.857 116.072 358.387C113.717 339.656 115.278 307.169 119.438 288.321C139.423 197.771 211.424 131.781 304.157 119.021C316.796 117.281 347.293 117.51 360.448 119.442C392.607 124.165 423.514 135.837 449.36 153.019C463.551 162.452 470.258 167.843 481.551 178.888C520.658 217.14 542.739 265.006 546.605 319.912C549.238 357.313 542.017 393.494 524.941 428.454C512.525 453.874 501.535 468.61 476.127 493.91C458.638 511.324 451.252 520.664 443.14 535.624C437.731 545.601 432.169 559.62 429.515 569.969C424.606 589.105 424.721 586.831 424.099 677.373C423.579 753.153 423.355 762.596 421.996 766.003C414.804 784.035 393.969 796.709 365.229 800.533C358.394 801.443 357.041 801.929 355.178 804.142C351.435 808.591 346.543 809.945 333.198 810.226C326.606 810.365 320.383 810.27 319.369 810.015Z" fill="#0055FF"/>
<path d="M98.2633 566.121C95.2972 564.394 93.6615 559.984 94.7563 556.666C96.0871 552.633 151.388 497.428 154.98 496.547C158.782 495.614 163.03 497.752 164.537 501.358C165.634 503.983 165.632 504.859 164.523 507.423C163.797 509.099 150.682 522.904 134.744 538.768C108.272 565.117 106.037 567.115 103.07 567.089C101.314 567.074 99.1507 566.638 98.2633 566.121Z" fill="#0055FF"/>
<path d="M526.896 538.768C511.232 523.176 497.881 509.196 497.228 507.701C494.572 501.622 500.201 494.962 506.658 496.546C509.76 497.308 565.277 552.302 566.901 556.222C569.048 561.406 564.694 567.117 558.593 567.117C555.605 567.117 553.346 565.097 526.896 538.768Z" fill="#0055FF"/>
<path d="M4.48569 338.238C-0.913977 335.47 -1.59924 327.17 3.30636 323.953C5.51443 322.505 9.44755 322.319 43.1365 322.061C63.6955 321.905 82.3318 322.039 84.5504 322.366C89.9627 323.157 92.9625 326.201 92.9625 330.902C92.9625 333.547 92.3464 335.051 90.5841 336.706L88.2059 338.941L47.4842 339.173C16.0687 339.353 6.24228 339.137 4.48569 338.238Z" fill="#0055FF"/>
<path d="M574.207 338.765C570.924 337.531 568.675 334.435 568.675 331.149C568.675 326.749 570.736 324.012 574.925 322.848C579.541 321.566 650.923 321.566 655.539 322.848C661.842 324.599 663.858 331.362 659.565 336.354L657.341 338.941L616.465 339.113C593.983 339.207 574.967 339.054 574.207 338.765Z" fill="#0055FF"/>
<path d="M124.967 136.809C109.32 121.217 95.9013 107.294 95.1482 105.869C92.1118 100.123 98.1078 92.969 104.62 94.5685C107.957 95.3883 162.639 149.517 164.522 153.865C165.64 156.447 165.637 157.298 164.5 160.014C162.966 163.685 160.657 165.159 156.437 165.159C153.704 165.159 150.693 162.444 124.967 136.809Z" fill="#0055FF"/>
<path d="M500.136 164.115C499.201 163.571 497.847 161.717 497.127 159.994C496.001 157.298 495.999 156.444 497.113 153.865C498.995 149.517 553.677 95.3883 557.015 94.5685C563.526 92.969 569.522 100.123 566.486 105.869C565.733 107.294 552.314 121.217 536.667 136.81C510.218 163.165 507.993 165.157 505.025 165.131C503.269 165.116 501.071 164.658 500.136 164.115Z" fill="#0055FF"/>
<path d="M325.216 90.5535L322.521 87.8587V46.4358V5.01299L324.782 2.57354C327.962 -0.857845 333.675 -0.857845 336.855 2.57354L339.116 5.01299V46.4358V87.8587L336.421 90.5535C334.582 92.3927 332.803 93.2484 330.819 93.2484C328.834 93.2484 327.055 92.3927 325.216 90.5535Z" fill="#0055FF"/>
<path d="M571.92 440.005C556.013 433.323 552.282 431.404 550.912 429.202C547.607 423.889 551.39 416.84 557.542 416.848C559.524 416.85 567.089 419.447 576.511 423.36C585.131 426.94 593.756 430.516 595.677 431.307C601.633 433.759 603.662 440.486 599.79 444.942C595.897 449.422 593.199 448.945 571.92 440.005Z" fill="#0E0498"/>
<path d="M82.4929 237.207C70.2592 232.107 62.6298 228.407 61.5191 227.035C56.5531 220.902 62.9613 211.676 70.5801 213.99C71.9887 214.418 80.8162 217.937 90.1967 221.81C111.381 230.556 114.443 233.251 111.222 240.321C110.043 242.908 106.096 245.412 103.38 245.294C102.467 245.258 93.0682 241.616 82.4929 237.207Z" fill="#0E0498"/>
<path d="M554.025 244.079C551.434 242.643 549.393 239.289 549.347 236.391C549.281 232.11 553.776 229.146 571.44 221.827C580.821 217.941 589.648 214.412 591.057 213.987C598.914 211.611 605.24 221.24 599.79 227.279C597.726 229.565 560.807 245.402 557.702 245.333C556.892 245.318 555.237 244.75 554.025 244.079Z" fill="#0E0498"/>
<path d="M231.376 110.074C228.948 108.035 213.734 71.264 213.734 67.4317C213.734 61.2616 222.562 57.5441 227.409 61.6727C229.736 63.6544 245.08 100.581 245.08 104.199C245.08 108.241 241.328 111.687 236.928 111.687C234.819 111.687 232.494 111.012 231.376 110.074Z" fill="#0E0498"/>
<path d="M418.818 109.248C417.567 107.897 416.558 105.685 416.558 104.292C416.558 101.022 431.366 65.0129 433.864 62.2085C438.263 57.2693 447.903 60.8557 447.903 67.4317C447.903 71.264 432.69 108.035 430.261 110.074C427.24 112.608 421.553 112.198 418.818 109.248Z" fill="#0E0498"/>
<path d="M63.3899 444.572C60.1441 441.326 59.9321 438.052 62.7694 434.99C65.1615 432.409 99.8644 417.766 103.59 417.766C111.043 417.766 113.788 427.006 107.524 431.004C104.432 432.977 69.3315 447.267 67.5765 447.267C66.7561 447.267 64.8721 446.054 63.3899 444.572Z" fill="#0E0498"/>
<path d="M319.369 810.015C313.27 808.762 308.762 806.502 306.641 803.633C304.951 801.347 304.053 801.044 297.547 800.562C287.076 799.787 276.873 796.876 266.216 791.623C251.483 784.361 242.73 774.455 240.129 762.102C239.368 758.487 239.142 740.625 239.343 699.872L239.623 642.713L331.585 642.478L423.546 642.243V701.083C423.546 765.849 423.59 765.253 417.82 774.345C409.302 787.759 389.374 797.919 365.725 800.905C358.323 801.84 357.035 802.272 355.737 804.253C352.934 808.53 346.856 810.362 334.581 810.628C328.496 810.759 321.651 810.483 319.369 810.015Z" fill="#0E0498"/>
<path d="M342.532 806.704C343.384 805.744 344.495 803.87 345 802.54C345.686 800.738 346.804 799.956 349.393 799.47C357.65 797.921 368.306 789.391 372.561 780.924C374.96 776.149 377.235 768.871 377.581 764.858L377.86 761.632L374.172 761.945C372.144 762.118 352.663 764.682 330.882 767.644C309.101 770.606 290.975 772.841 290.602 772.611C290.229 772.38 284.65 772.895 278.205 773.755L266.485 775.318L264.322 772.802C263.132 771.419 262.158 769.096 262.158 767.64C262.158 763.465 265.519 761.523 274.839 760.314C279.273 759.739 285.183 758.662 287.972 757.92C290.761 757.178 312.127 754.029 335.451 750.921C358.776 747.813 378.067 744.949 378.321 744.557C378.574 744.165 378.642 741.092 378.471 737.73L378.161 731.616L375.245 732.105C364.089 733.973 289.463 743.662 286.129 743.675C282.606 743.689 275.523 744.625 260.598 747.053C256.644 747.696 252.926 744.152 252.969 739.778C253.02 734.27 256.58 731.686 264.172 731.641C269.627 731.611 284.829 729.497 289.816 728.08C291.591 727.576 312.127 724.599 335.451 721.466C358.776 718.333 378.067 715.448 378.321 715.056C378.574 714.663 378.642 711.591 378.472 708.228L378.161 702.115L375.245 702.603C364.089 704.472 289.463 714.161 286.129 714.174C282.606 714.188 275.523 715.124 260.598 717.552C256.644 718.195 252.927 714.65 252.969 710.277C253.02 704.769 256.58 702.184 264.172 702.139C269.627 702.11 284.829 699.996 289.816 698.579C291.591 698.074 312.127 695.098 335.452 691.965C358.776 688.832 378.068 685.947 378.321 685.554C378.574 685.161 378.642 682.089 378.472 678.727L378.162 672.613L375.245 673.102C364.089 674.971 289.463 684.66 286.129 684.672C282.606 684.687 275.523 685.623 260.598 688.051C256.644 688.694 252.927 685.149 252.969 680.776C253.02 675.268 256.58 672.683 264.173 672.638C269.627 672.609 284.829 670.495 289.817 669.077C291.591 668.573 312.127 665.6 335.452 662.471C358.777 659.342 378.03 656.626 378.236 656.435C378.443 656.245 378.523 653.324 378.413 649.945C378.276 645.707 378.588 643.564 379.42 643.037C380.083 642.616 390.283 642.266 402.086 642.258L423.546 642.243L423.29 702.86L423.034 763.476L420.362 768.918C412.847 784.224 390.304 796.301 364.961 798.597C358.548 799.178 357.839 799.447 356.647 801.753C355.275 804.406 350.79 806.652 344.602 807.787C341.102 808.428 341.034 808.392 342.532 806.704Z" fill="black"/>
<path d="M332.109 117.853C321.261 117.772 310.477 118.152 304.158 119.022C211.425 131.782 139.422 197.77 119.436 288.319C115.276 307.168 113.716 339.656 116.071 358.387C121.047 397.969 135.34 433.452 158.622 464.181C169.555 467.845 180.689 470.971 191.958 473.54C227.349 481.386 263.566 483.645 298.54 480.189C333.514 476.734 366.561 467.631 395.794 453.4C425.026 439.169 449.872 420.089 468.913 397.249C487.953 374.41 500.815 348.258 506.765 320.287C517.133 271.274 505.804 219.036 474.688 172.38C466.983 165.323 460.445 160.388 449.361 153.02C423.515 135.838 392.606 124.165 360.447 119.442C353.869 118.475 342.958 117.935 332.109 117.853Z" fill="#377AFF"/>
<path d="M331.834 261.687C326.051 261.665 319.952 262.568 316.72 264.217C308.301 268.512 299.919 279.433 296.463 290.618C294.082 298.324 293.135 315.863 294.527 326.446C296.944 344.814 306.001 364.495 317.96 377.362C320.632 380.236 320.67 380.399 319.087 382.149C316.947 384.514 303.621 389.305 295.416 390.66C290.048 391.547 288.737 391.51 287.687 390.434C286.992 389.721 284.781 384.988 282.771 379.918C270.779 354.889 260.461 327.669 238.802 309.275C228.52 301.068 214.037 294.678 204.089 301.595C198.054 305.833 195.644 310.944 195.207 320.438C195.163 346.489 211.734 373.081 232.506 388.335C243.127 395.946 259.27 402.269 272.274 403.914C275.818 404.362 277.505 405.076 278.442 406.516C279.151 407.606 281.377 414.331 283.388 421.459C298.656 475.586 306.536 543.023 306.567 619.847L306.574 643.128H312.428H318.281L318.886 629.065C319.533 614.121 318.339 568.857 316.693 545.865C313.399 499.834 306.566 457.658 296.369 420.469C294.376 413.202 292.742 406.649 292.742 405.903C292.742 404.448 294.632 403.426 297.325 403.426C301.151 403.426 315.927 398.453 323.859 394.495L332.386 390.241L340.916 394.495C349.341 398.698 363.684 403.426 368.013 403.426C369.24 403.426 370.492 404.074 370.797 404.867C371.101 405.66 369.855 412.402 368.025 419.849C361.142 447.863 356.411 475.885 352.283 513.134C348.282 549.24 345.295 597.985 345.295 627.13V643.128H351.285H357.278L357.294 640.13C357.323 631.924 359.24 583.647 360.062 570.296C363.229 518.841 369.699 469.691 378.14 432.928C381.717 417.351 384.644 406.179 385.332 405.491C385.573 405.25 390.148 404.269 395.5 403.309C415.74 399.678 430.763 391.755 444.465 377.483C452.433 369.182 455.969 364.077 460.615 354.163C469.817 334.526 468.846 316.16 458.111 306.711C450.669 300.161 441.517 299.524 430.296 304.775C422.819 308.274 409.797 321.054 402.575 331.978C395.91 342.059 385.959 362.695 380.791 377.15C378.434 383.742 375.973 389.685 375.323 390.354C374.373 391.333 373.007 391.365 368.35 390.52C360.636 389.121 347.715 384.386 345.779 382.247C344.305 380.617 344.501 380.192 349.708 373.769C358.884 362.451 364.44 351.387 368.524 336.3C371.154 326.585 371.406 304.407 368.986 295.56C364.109 277.731 354.674 266.598 341.212 262.776C338.658 262.051 335.304 261.702 331.834 261.687ZM332.673 277.338C337.888 277.338 339.48 277.752 343.265 280.102C360.5 290.804 363.605 325.949 349.739 353.396C344.663 363.442 335.683 374.601 332.673 374.601C331.788 374.601 329.443 372.839 327.459 370.684C313.459 355.474 305.892 334.03 307.115 313.026C308.046 297.049 313.26 285.58 322.082 280.102C325.867 277.752 327.459 277.338 332.673 277.338ZM214.931 315.752C216.724 315.789 219.078 316.585 222.092 318.07C228.762 321.358 244.58 337.296 251.035 347.232C259.292 359.942 273.324 389.292 272.354 391.821C271.648 393.659 268.46 393.287 260.155 390.396C231.484 380.415 211.97 355.769 210.253 327.369C209.764 319.276 210.986 315.671 214.931 315.752ZM443.822 316.52C450.111 316.52 454.368 322.763 454.368 331.993C454.368 346.059 443.246 366.047 429.203 377.214C418.727 385.545 402.026 393.039 393.935 393.039C390.595 393.039 390.536 392.98 391.11 390.108C392.986 380.727 405.886 353.129 414.331 340.425C423.26 326.995 436.18 316.52 443.822 316.52Z" fill="white"/>
<path opacity="0.4" d="M307.111 293.002C350.175 249.962 367.64 197.616 346.12 176.084C324.6 154.552 272.245 171.988 229.181 215.028C186.117 258.067 168.652 310.413 190.172 331.945C211.692 353.477 264.047 336.041 307.111 293.002Z" fill="white"/>
</svg>
