<svg width="446" height="372" viewBox="0 0 446 372" fill="none" xmlns="http://www.w3.org/2000/svg">
<g clip-path="url(#clip0_615_30)">
<path d="M20.0465 370.324C16.4704 368.744 13.7318 364.284 13.7318 360.039C13.7318 358.226 15.735 354.353 19.3167 349.239C29.4183 334.818 36.4291 318.742 38.8184 304.523L40.1117 296.826L33.8073 290.546C22.6923 279.474 14.6431 267.654 8.8027 253.827C-12.9374 202.361 6.29106 148.146 58.7456 113.013C72.0099 104.129 95.8244 93.289 109.82 89.7648C113.881 88.7425 114.669 88.0715 116.663 83.9375C120.65 75.6745 129.586 63.0862 137.248 54.9421C151.16 40.1532 165.235 29.9868 185.232 20.282C245.879 -9.15067 322.148 -6.35536 379.508 27.4024C390.345 33.7805 406.488 46.4919 413.287 54.0014C447.094 91.3398 454.532 135.133 434.26 177.486C428.392 189.745 423.014 197.477 413.363 207.529L405.359 215.867L406.649 223.543C408.887 236.862 415.754 253.21 424.117 265.129C431.168 275.176 431.721 276.189 431.727 279.065C431.734 283.329 429.204 287.314 425.316 289.158C422.106 290.682 420.977 290.696 411.82 289.327C386.226 285.5 360.918 275.937 338.745 261.713C334.503 258.992 330.747 256.766 330.399 256.766C330.05 256.766 328.571 259.128 327.11 262.016C320.697 274.697 308.447 289.666 296.005 300.028C252.678 336.11 189.205 350.632 127.2 338.648L116.168 336.516L106.7 342.743C88.8786 354.465 64.7231 364.389 43.6673 368.639C29.264 371.547 23.7127 371.943 20.0465 370.324Z" fill="#0055FF"/>
<path d="M47.4757 351.281C66.3132 346.717 83.1693 339.185 102.138 326.855C108.136 322.955 113.631 319.765 114.349 319.765C115.067 319.765 119.474 320.656 124.142 321.744C177.49 334.183 238.357 323.044 278.232 293.544C287.644 286.58 301.428 272.703 306.671 264.912L310.946 258.559L308.089 259.175C306.517 259.514 300.732 260.224 295.232 260.753C238.188 266.235 180.082 247.927 143.526 212.952C131.57 201.513 123.807 191.423 117.544 179.18C108.113 160.745 105.228 147.708 106.078 127.363C106.402 119.609 106.96 111.789 107.318 109.985L107.968 106.705L102.1 108.847C69.4403 120.77 41.147 143.339 26.9851 168.765C20.3537 180.671 15.7317 198.254 15.7317 211.576C15.7317 220.51 18.3896 233.959 22.1161 243.88C26.9552 256.763 33.9429 267.677 44.4448 278.755C52.2029 286.939 53.8271 289.229 54.7292 293.254C57.3006 304.728 49.4709 331.475 38.2595 349.515C36.8069 351.853 35.9813 353.765 36.425 353.764C36.8687 353.763 41.8415 352.646 47.4757 351.281Z" fill="#0E0498"/>
<path d="M406.69 267.516C395.136 247.839 388.282 224.067 390.743 212.211C391.676 207.72 392.834 206.034 400.086 198.617C413.675 184.719 421.925 170.379 426.939 151.941C429.783 141.482 429.989 120.362 427.343 110.429C422.599 92.6215 414.96 79.3518 401.11 64.8579C389.455 52.6619 379.136 44.8806 364.534 37.278C345.995 27.6254 330.264 22.3611 309.194 18.759C240.41 6.9998 168.234 32.875 137.037 80.4774C127.977 94.3029 123.352 106.951 121.853 122.001C115.789 182.908 173.495 236.054 255.232 244.838C274.915 246.954 304.798 244.897 323.091 240.169C326.313 239.336 330.249 238.94 331.838 239.289C333.427 239.638 339.116 242.843 344.48 246.412C363.25 258.9 391.459 270.378 409.002 272.665C409.426 272.72 408.385 270.403 406.69 267.516Z" fill="#0055FF"/>
<path d="M186.404 161.388C176.855 158.713 168.226 150.003 165.634 140.423C162.944 130.483 166.787 117.436 174.367 110.781C180.378 105.503 186.204 103.318 194.232 103.33C203.428 103.345 210.248 106.321 216.169 112.907C226.208 124.073 226.403 141.041 216.621 152.154C209.299 160.472 196.785 164.296 186.404 161.388Z" fill="white"/>
<path d="M267.535 161.421C241.327 154.059 238.087 118.069 262.55 106.056C270.421 102.191 280.88 102.164 288.232 105.99C299.006 111.599 304.908 121.075 304.908 132.766C304.908 141.036 302.623 146.758 296.798 153.078C289.744 160.731 277.501 164.221 267.535 161.421Z" fill="white"/>
<path d="M350.232 161.89C341.16 159.532 333.078 152.946 329.402 144.915C326.466 138.504 326.446 127.072 329.358 120.715C332.398 114.081 337.101 109.223 343.55 106.056C348.302 103.723 350.459 103.278 356.732 103.337C369.113 103.454 378.406 109.467 383.569 120.699C392.044 139.14 379.302 160.358 358.653 162.189C355.671 162.453 351.882 162.319 350.232 161.89Z" fill="white"/>
<path d="M200.522 144.861C210.254 139.864 210.21 125.068 200.449 120.436C196.029 118.338 192.473 118.32 188.149 120.372C180.69 123.912 178.219 134.625 183.432 140.821C188.343 146.657 194.286 148.062 200.522 144.861Z" fill="#0055FF"/>
<path d="M283.571 143.88C285.185 142.732 287.24 139.955 288.138 137.709C292.181 127.605 282.668 116.557 272.19 119.187C270.784 119.54 268.023 121.305 266.054 123.109C259.071 129.509 260.921 140.495 269.752 145.068C274.011 147.275 279.463 146.806 283.571 143.88Z" fill="#0055FF"/>
<path d="M362.115 145.379C368.97 142.515 372.409 133.29 369.028 126.837C363.866 116.985 351.212 116.367 345.002 125.664C340.575 132.29 343.234 141.237 350.752 145.014C354.955 147.126 357.722 147.215 362.115 145.379Z" fill="#0055FF"/>
</g>
<defs>
<clipPath id="clip0_615_30">
<rect width="445.45" height="371.269" fill="white"/>
</clipPath>
</defs>
</svg>
