<svg width="402" height="512" viewBox="0 0 402 512" fill="none" xmlns="http://www.w3.org/2000/svg">
<g clip-path="url(#clip0_615_42)">
<path d="M38.6431 510.306C25.1672 507.044 12.5783 498.269 6.29694 487.759C-0.396226 476.56 0.00458522 489.069 0.00458522 291.392C0.00458522 95.4717 -0.343507 107.333 5.77094 94.8918C9.47019 87.3647 19.9746 76.9453 27.8946 72.9473C38.1056 67.7928 44.4542 66.9287 72.2546 66.9092L97.0046 66.8903V56.4554C97.0046 44.2553 97.7952 41.5982 102.23 38.8945C105.216 37.074 107.28 36.8974 125.617 36.894L145.73 36.8903L149.038 30.1716C153.442 21.2243 164.159 10.5128 173.057 6.1625C189.841 -2.04226 210.714 -2.05495 228.005 6.12923C236.783 10.2841 247.41 20.9838 251.854 30.1404L255.13 36.8904H275.099C303.922 36.8904 304.323 37.135 304.86 55.0436L305.215 66.8904L329.86 66.9093C357.542 66.9282 363.901 67.7959 374.127 72.9463C382.004 76.9139 392.451 87.2974 396.223 94.9073C402.353 107.277 402.005 95.4182 402.005 291.392C402.005 489.07 402.405 476.571 395.712 487.749C389.264 498.518 378.123 506.409 364.419 509.914C356.868 511.845 352.981 511.89 200.595 511.809C69.4461 511.739 43.568 511.499 38.6431 510.306Z" fill="#0E0498"/>
<path d="M358.544 486.348C366.086 484.394 371.234 481.013 374.746 475.707L377.505 471.538V291.465V111.392L375.302 107.276C371.753 100.641 368.287 97.1781 362.209 94.1932L356.505 91.3921L330.755 91.0549L305.005 90.7178V106.337C305.005 123.322 304.295 126.516 299.553 130.892L296.844 133.392L201.903 133.657C95.3445 133.954 102.522 134.448 98.948 126.576C97.3419 123.038 97.0452 119.946 97.0266 106.555L97.0039 90.7178L71.2539 91.0549L45.5039 91.3921L39.7998 94.1932C33.7213 97.1781 30.2555 100.641 26.7061 107.276L24.5039 111.392V291.465V471.538L27.2625 475.707C28.7796 477.999 31.7047 480.986 33.7625 482.345C42.2955 487.977 35.528 487.755 200.544 487.826C334.517 487.884 353.293 487.709 358.544 486.348Z" fill="#0055FF"/>
<path d="M92.5047 434.018C90.8547 432.992 83.3535 425.878 75.8353 418.21C64.7721 406.926 62.0341 403.565 61.4752 400.586C59.9468 392.439 63.9185 386.895 71.8278 386.135L77.0333 385.634L87.5222 395.956L98.0112 406.278L101.258 403.241C103.044 401.571 111.93 393.112 121.005 384.444C130.08 375.775 139.04 368.018 140.916 367.206C145.471 365.235 149.914 366.197 153.799 369.995C157.9 374.004 158.823 378.764 156.362 383.216C153.888 387.695 106.39 432.75 102.287 434.511C98.0116 436.345 96.0908 436.249 92.5047 434.018Z" fill="white"/>
<path d="M185.337 419.81C177.836 417.601 174.387 407.489 179.093 401.507C183.682 395.673 180.583 395.892 258.487 395.892C334.68 395.892 334.045 395.854 338.339 400.676C342.666 405.535 341.082 414.829 335.278 418.632C332.786 420.266 327.451 420.404 260.549 420.568C218.329 420.671 187.193 420.357 185.337 419.81Z" fill="white"/>
<path d="M92.3835 336.606C88.4972 334.38 62.1019 306.128 61.4381 303.483C59.8198 297.035 64.0081 289.708 70.0739 288.376C75.3972 287.207 79.3695 289.539 88.9836 299.477L98.174 308.977L117.339 290.621C127.88 280.525 137.617 271.506 138.977 270.578C144.614 266.733 153.851 269.886 156.662 276.615C159.622 283.697 158.507 285.21 131.356 310.981C117.79 323.857 105.524 335.176 104.098 336.135C101.109 338.144 95.466 338.371 92.3835 336.606Z" fill="white"/>
<path d="M182.572 320.956C175.179 316.055 174.995 305.307 182.23 300.896C185.424 298.948 187.308 298.899 258.804 298.895C339.243 298.891 336.289 298.673 339.488 304.859C342.08 309.872 341.45 314.435 337.582 318.656L334.159 322.392L259.832 322.646C187.663 322.893 185.42 322.844 182.572 320.956Z" fill="white"/>
<path d="M93.5046 239.494C91.8546 238.768 84.117 231.609 76.3099 223.586C65.0677 212.032 61.9768 208.26 61.4498 205.451C60.5401 200.602 61.578 197.164 64.979 193.763C67.2621 191.48 68.7435 190.891 72.2052 190.891C77.5245 190.891 78.4578 191.526 88.98 202.307C93.5886 207.028 97.6171 210.89 97.932 210.888C98.2468 210.886 107.28 202.525 118.005 192.306C128.73 182.087 139.04 173.051 140.916 172.227C149.282 168.554 159.241 176.489 157.553 185.483C156.941 188.746 151.385 194.5 120.505 223.847C106.816 236.855 101.332 240.961 97.7868 240.852C97.0816 240.83 95.1547 240.219 93.5046 239.494Z" fill="white"/>
<path d="M180.404 221.492C177.52 218.607 177.004 217.392 177.004 213.477C177.004 209.617 177.564 208.251 180.427 205.127L183.85 201.392L255.677 201.1C295.182 200.94 328.954 201.07 330.725 201.39C340.692 203.189 344.242 214.807 337.03 222.02L334.158 224.892H258.981H183.804L180.404 221.492Z" fill="white"/>
<path d="M280.004 85.4512V61.0106L260.425 60.7012L240.846 60.3918L237.536 56.7767C235.633 54.6997 233.556 50.8622 232.654 47.7571C225.682 23.7754 196.894 14.9136 178.515 31.0915C172.859 36.0695 169.918 40.5584 167.506 47.8918C163.486 60.1149 161.789 60.8918 139.103 60.8918H122.004V85.3918V109.892H201.004H280.004V85.4512Z" fill="#0055FF"/>
</g>
<defs>
<clipPath id="clip0_615_42">
<rect width="402.009" height="511.831" fill="white"/>
</clipPath>
</defs>
</svg>
