<svg width="424" height="480" viewBox="0 0 424 480" fill="none" xmlns="http://www.w3.org/2000/svg">
<path d="M241.693 478.449C237.305 475.375 237.283 474.419 241.035 449.948C244.15 429.625 244.97 426.071 247.623 421.369L250.653 416H147.513H44.3716L41.9171 413.545C39.5526 411.181 39.4625 410.594 39.4625 397.545V384H33.9171C29.3626 384 27.9329 383.561 25.9171 381.545L23.4625 379.091V353.092V327.094L18.883 325.068C11.7146 321.897 7.07652 317.623 3.39485 310.796C0.295106 305.047 0 303.761 0 296C0 288.239 0.295181 286.953 3.39485 281.204C7.07652 274.377 11.7146 270.103 18.883 266.932C23.4248 264.923 23.4625 264.866 23.4625 260C23.4625 255.134 23.4247 255.077 18.883 253.068C11.7146 249.897 7.07652 245.623 3.39485 238.796C0.295106 233.047 0 231.761 0 224C0 216.237 0.294809 214.953 3.39799 209.199C7.29824 201.966 10.7963 198.676 18.2125 195.267L23.4625 192.853V183.973V175.094L18.883 173.068C11.7146 169.897 7.07652 165.623 3.39485 158.796C0.295106 153.047 0 151.761 0 144C0 136.239 0.295181 134.953 3.39485 129.204C7.07652 122.377 11.7146 118.103 18.883 114.932L23.4625 112.906V104V95.0936L18.883 93.0679C11.7146 89.8969 7.07652 85.623 3.39485 78.7955C0.295106 73.0472 0 71.7612 0 64C0 56.2388 0.295181 54.9528 3.39485 49.2044C7.07652 42.377 11.7146 38.1031 18.883 34.9321L23.4625 32.9064V18.9078C23.4625 5.37832 23.5449 4.82681 25.9171 2.45454L28.3716 0H147.267H266.163L278.717 12L291.271 24H322.912H354.553L357.008 26.4545L359.462 28.9091L359.466 129.705L359.47 230.5L367.368 217C380.433 194.669 382.158 192.261 387.222 189.293C394.145 185.236 402.696 184.902 409.862 188.408C420.307 193.519 425.544 204.973 422.475 216C421.939 217.925 407.542 243.307 390.48 272.404L359.46 325.309V368.044C359.46 408.616 359.363 410.898 357.55 413.139C355.657 415.479 355.418 415.505 330.835 416L306.031 416.5L296.745 432.36C291.638 441.082 287.46 448.545 287.46 448.942C287.46 449.785 285.345 451.497 264.141 467.821C254.895 474.94 247.404 480 246.113 480C244.899 480 242.911 479.302 241.693 478.449Z" fill="#0E0498"/>
<path d="M262.27 449.158L265.577 446.675L262.458 444.7C258.763 442.361 257.9 443.024 257.184 448.75C256.605 453.386 256.636 453.388 262.27 449.158Z" fill="black"/>
<path d="M329.549 344.963C358.076 296.308 381.413 256.05 381.409 255.5C381.406 254.95 378.509 252.857 374.972 250.85C370.349 248.226 368.289 247.524 367.646 248.35C366.26 250.131 263.462 425.778 263.462 426.365C263.462 427.188 275.868 433.997 276.822 433.697C277.295 433.548 301.022 393.618 329.549 344.963Z" fill="#0055FF"/>
<path d="M262.999 395.25C264.499 392.637 266.603 389.037 267.676 387.25L269.626 384H162.544H55.4624V392V400H157.867H260.272L262.999 395.25Z" fill="#0055FF"/>
<path d="M343.462 377C343.462 364.35 343.284 354 343.065 354C342.561 354 316.462 398.502 316.462 399.362C316.462 399.713 322.537 400 329.962 400H343.462V377Z" fill="#0055FF"/>
<path d="M295.218 340.206L311.462 312.411V192.205V72H285.917H260.371L257.917 69.5455L255.462 67.0909V41.5455V16H147.462H39.4624V47.1871V78.3742L42.4393 75.5221C44.0766 73.9535 45.9092 71.1764 46.5117 69.3507C47.8183 65.3918 51.8008 62 55.1427 62C58.4394 62 62.4648 66.2426 62.4526 69.7045C62.4375 73.8675 58.1986 82.1971 53.9134 86.4824C51.8355 88.5603 47.734 91.3598 44.7989 92.7035L39.4624 95.1466V126.76V158.374L42.4393 155.522C44.0766 153.954 45.9092 151.176 46.5117 149.351C47.8183 145.392 51.8008 142 55.1427 142C58.4394 142 62.4648 146.243 62.4526 149.705C62.4375 153.867 58.1986 162.197 53.9134 166.482C51.8355 168.56 47.734 171.36 44.7989 172.704L39.4624 175.147V206.76V238.374L42.4393 235.522C44.0766 233.954 45.9092 231.176 46.5117 229.351C47.8183 225.392 51.8008 222 55.1427 222C58.4394 222 62.4648 226.243 62.4526 229.705C62.4375 233.867 58.1986 242.197 53.9134 246.482C51.8355 248.56 47.734 251.36 44.7989 252.704L39.4624 255.147V282.76V310.374L42.4393 307.522C44.0766 305.954 45.9092 303.176 46.5117 301.351C47.8183 297.392 51.8008 294 55.1427 294C58.4394 294 62.4648 298.243 62.4526 301.705C62.4375 305.867 58.1986 314.197 53.9134 318.482C51.8355 320.56 47.734 323.36 44.7989 324.704L39.4624 327.147V347.573V368H159.218H278.973L295.218 340.206Z" fill="#0055FF"/>
<path d="M89.917 293.545C88.3697 291.998 87.4624 289.948 87.4624 288C87.4624 286.052 88.3697 284.002 89.917 282.455L92.3715 280H127.462H162.553L165.008 282.455C166.555 284.002 167.462 286.052 167.462 288C167.462 289.948 166.555 291.998 165.008 293.545L162.553 296H127.462H92.3715L89.917 293.545Z" fill="white"/>
<path d="M89.917 245.545C88.3697 243.998 87.4624 241.948 87.4624 240C87.4624 238.052 88.3697 236.002 89.917 234.455L92.3715 232H183.462H274.553L277.008 234.455C278.555 236.002 279.462 238.052 279.462 240C279.462 241.948 278.555 243.998 277.008 245.545L274.553 248H183.462H92.3715L89.917 245.545Z" fill="white"/>
<path d="M89.917 197.545C88.3697 195.998 87.4624 193.948 87.4624 192C87.4624 190.052 88.3697 188.002 89.917 186.455L92.3715 184H183.462H274.553L277.008 186.455C278.555 188.002 279.462 190.052 279.462 192C279.462 193.948 278.555 195.998 277.008 197.545L274.553 200H183.462H92.3715L89.917 197.545Z" fill="white"/>
<path d="M89.917 149.545C88.3697 147.998 87.4624 145.948 87.4624 144C87.4624 142.052 88.3697 140.002 89.917 138.455L92.3715 136H183.462H274.553L277.008 138.455C278.555 140.002 279.462 142.052 279.462 144C279.462 145.948 278.555 147.998 277.008 149.545L274.553 152H183.462H92.3715L89.917 149.545Z" fill="white"/>
<path d="M89.917 101.545C88.3697 99.9982 87.4624 97.9484 87.4624 96C87.4624 94.0516 88.3697 92.0018 89.917 90.4545L92.3715 88H183.462H274.553L277.008 90.4545C278.555 92.0018 279.462 94.0516 279.462 96C279.462 97.9484 278.555 99.9982 277.008 101.545L274.553 104H183.462H92.3715L89.917 101.545Z" fill="white"/>
<path d="M23.4354 295.75L23.409 281.5L19.9965 285.169C14.2099 291.391 14.0532 300.186 19.616 306.521C21.2958 308.435 22.8486 310 23.0667 310C23.2848 310 23.4504 303.588 23.4354 295.75Z" fill="black"/>
<path d="M336.328 270.188L343.463 257.876V148.938V40H325.273H307.083L317.273 50.355L327.463 60.7101V172.555C327.463 235.603 327.84 283.986 328.328 283.45C328.804 282.928 332.404 276.96 336.328 270.188Z" fill="#0055FF"/>
<path d="M392.293 237.799L394.319 234.599L388.141 230.835C384.743 228.765 381.497 227.055 380.928 227.035C379.54 226.988 375.871 233.296 377.042 233.717C377.548 233.899 380.438 235.602 383.463 237.501C386.488 239.401 389.256 240.965 389.614 240.978C389.973 240.989 391.178 239.56 392.293 237.799Z" fill="black"/>
<path d="M23.4354 223.75L23.409 209.5L19.9965 213.169C14.2099 219.391 14.0532 228.186 19.616 234.521C21.2958 236.435 22.8486 238 23.0667 238C23.2848 238 23.4504 231.588 23.4354 223.75Z" fill="black"/>
<path d="M405.212 216.044C408.121 210.951 408.06 207.507 405.008 204.455C401.291 200.738 396.254 201.075 393.139 205.25C387.931 212.229 387.934 212.25 394.774 216.305C398.178 218.323 401.412 219.976 401.962 219.979C402.512 219.982 403.975 218.212 405.212 216.044Z" fill="black"/>
<path d="M23.4354 143.75L23.409 129.5L19.9965 133.169C14.2099 139.391 14.0532 148.186 19.616 154.521C21.2958 156.435 22.8486 158 23.0667 158C23.2848 158 23.4504 151.588 23.4354 143.75Z" fill="black"/>
<path d="M23.4354 63.75L23.409 49.5L19.9965 53.1694C14.2099 59.3915 14.0532 68.1857 19.616 74.5214C21.2958 76.4346 22.8486 78 23.0667 78C23.2848 78 23.4504 71.5875 23.4354 63.75Z" fill="black"/>
<path d="M299.462 55.7362C299.462 55.5913 293.162 49.1849 285.462 41.4996L271.462 27.5264V41.763V55.9996H285.462C293.162 55.9996 299.462 55.8811 299.462 55.7362Z" fill="white"/>
</svg>
