<svg width="376" height="512" viewBox="0 0 376 512" fill="none" xmlns="http://www.w3.org/2000/svg">
<path d="M247.889 0L137.922 0.271484L27.957 0.542969L21.3066 3.81641C13.0691 7.87214 5.55949 15.7755 2.32031 23.7969L0 29.543V256.043V482.543L2.30469 488.244C6.48144 498.581 16.8029 507.8 27.4297 510.684C30.9905 511.65 66.8043 511.881 189.522 511.732L347.043 511.543L353.693 508.27C361.931 504.214 369.44 496.311 372.68 488.289L375 482.543L375.279 401.068C375.391 368.338 375.358 346.729 375.172 333.463L375.5 333.135V208.539C375.5 142.329 375.275 129.519 374.07 127.244C373.284 125.759 344.573 96.5208 310.266 62.2715L247.889 0Z" fill="#0E0498"/>
<path d="M237.5 15.043V30.043V45.043H148.816C60.9596 45.043 60.0909 45.0625 55.8224 47.1289C53.4526 48.2761 50.4993 50.6386 49.2579 52.3789C47.0849 55.4254 46.9897 56.4553 46.7032 80.0742C46.4092 104.32 46.4324 104.646 48.7267 108.051C50.0034 109.945 52.5662 112.519 54.422 113.77L57.795 116.043H136.149C213.167 116.043 214.534 116.009 216.5 114.043C219.071 111.472 219.071 106.614 216.5 104.043C214.535 102.077 213.168 102.043 139.072 102.043C71.8343 102.043 63.4732 101.871 62.0724 100.471C60.7612 99.1595 60.5001 95.9438 60.5001 81.0527C60.5001 71.237 60.7737 62.495 61.1075 61.625C61.6546 60.1993 70.3775 60.043 149.545 60.043H237.375L237.688 85.3184L238 110.594L241.25 117.191C245.103 125.013 251.383 131.16 259.324 134.883L265 137.543L312.75 137.83L360.5 138.117V212.766V333.414L360.813 333.748C360.604 347.136 360.5 368.047 360.5 397.611C360.5 457.497 360.196 478.335 359.277 481.428C357.67 486.84 350.297 494.213 344.885 495.82C338.908 497.595 36.0917 497.595 30.1153 495.82C24.7032 494.213 17.33 486.84 15.7228 481.428C13.9427 475.434 13.9427 36.6524 15.7228 30.6582C17.3234 25.2682 24.958 17.5639 30.1192 16.1309C32.7749 15.3935 66.1208 15.0526 135.75 15.0488L237.5 15.043Z" fill="#0055FF"/>
<path d="M301.496 74.5384L253 26.0342L252.704 65.2885C252.518 89.8704 252.788 105.851 253.426 108.043C254.844 112.922 259.671 118.423 264.728 120.926C268.865 122.974 270.281 123.041 309.496 123.042L349.992 123.043L301.496 74.5384Z" fill="#0055FF"/>
<path d="M53.7562 420.399C51.9722 419.519 49.6097 417.339 48.5062 415.553C46.6093 412.484 46.5002 410.598 46.5037 380.925C46.509 336.285 43.281 339.543 87.5 339.543C122.552 339.543 122.377 339.513 126.544 346.347C128.366 349.335 128.493 351.583 128.496 380.925C128.501 425.16 131.612 422.054 87.3489 422.02C61.5869 422.001 56.5097 421.756 53.7562 420.399Z" fill="white"/>
<path d="M114.267 380.793L114 354.543H87.5H61L60.7334 380.793L60.4668 407.043H87.5H114.533L114.267 380.793Z" fill="#0055FF"/>
<path d="M161.5 400.044C158.522 397.066 158.833 391.714 162.135 389.117C164.749 387.06 165.382 387.044 242 387.044C318.617 387.044 319.251 387.059 321.865 389.117C325.166 391.714 325.477 397.066 322.5 400.044C320.534 402.01 319.166 402.044 242 402.044C164.833 402.044 163.466 402.01 161.5 400.044Z" fill="white"/>
<path d="M161.5 370.044C158.522 367.066 158.833 361.714 162.135 359.117C164.749 357.06 165.382 357.044 242 357.044C318.617 357.044 319.251 357.059 321.865 359.117C325.166 361.714 325.477 367.066 322.5 370.044C320.534 372.01 319.166 372.044 242 372.044C164.833 372.044 163.466 372.01 161.5 370.044Z" fill="white"/>
<path d="M53.7562 307.399C51.9722 306.519 49.6097 304.339 48.5062 302.553C46.6093 299.484 46.5002 297.598 46.5037 267.925C46.509 223.285 43.281 226.543 87.5 226.543C122.552 226.543 122.377 226.513 126.544 233.347C128.366 236.335 128.493 238.583 128.496 267.925C128.501 312.16 131.612 309.054 87.3489 309.02C61.5869 309.001 56.5097 308.756 53.7562 307.399Z" fill="white"/>
<path d="M114.267 267.793L114 241.543H87.5H61L60.7334 267.793L60.4668 294.043H87.5H114.533L114.267 267.793Z" fill="#0055FF"/>
<path d="M161.5 287.044C158.522 284.066 158.833 278.714 162.135 276.117C164.749 274.06 165.382 274.044 242 274.044C318.617 274.044 319.251 274.059 321.865 276.117C325.166 278.714 325.477 284.066 322.5 287.044C320.534 289.01 319.166 289.044 242 289.044C164.833 289.044 163.466 289.01 161.5 287.044Z" fill="white"/>
<path d="M161.5 257.044C158.522 254.066 158.833 248.714 162.135 246.117C164.749 244.06 165.382 244.044 242 244.044C318.617 244.044 319.251 244.059 321.865 246.117C325.166 248.714 325.477 254.066 322.5 257.044C320.534 259.01 319.166 259.044 242 259.044C164.833 259.044 163.466 259.01 161.5 257.044Z" fill="white"/>
</svg>
