<svg width="512" height="362" viewBox="0 0 512 362" fill="none" xmlns="http://www.w3.org/2000/svg">
<path d="M180 360.452C135.496 358.255 62.3193 351.744 49.5 348.842C32.593 345.014 16.403 330.564 10.1564 313.728C5.29293 300.619 0 231.444 0 180.991C0 130.537 5.29293 61.3627 10.1564 48.2541C16.4041 31.4146 32.6133 16.9501 49.5 13.1454C56.2481 11.625 96.488 7.36899 126.885 4.96068C208.427 -1.49974 298.422 -1.65494 380 4.52414C406.923 6.56338 456.168 11.7063 462.5 13.1399C479.407 16.9679 495.597 31.4176 501.844 48.2541C506.707 61.3627 512 130.537 512 180.991C512 231.468 506.706 300.635 501.84 313.728C495.647 330.39 479.06 345.207 462.5 348.868C456.072 350.29 406.515 355.449 380 357.458C320.07 361.997 236.596 363.247 180 360.452Z" fill="#0055FF"/>
<path d="M277.872 223.49C312.562 200.39 340.945 181.265 340.945 180.99C340.945 180.489 215.588 96.7828 213.899 96.1571C213.371 95.9613 213 130.981 213 180.99C213 231 213.371 266.02 213.899 265.824C214.394 265.64 243.182 246.59 277.872 223.49Z" fill="white"/>
</svg>
